<svg width="117" height="100" viewBox="0 0 117 100" fill="none" xmlns="http://www.w3.org/2000/svg">
<path d="M89.971 46.427L91.876 50.286C92.002 50.541 92.244 50.717 92.525 50.758L96.784 51.377C97.491 51.48 97.774 52.349 97.262 52.848L94.18 55.852C93.977 56.05 93.884 56.336 93.932 56.615L94.66 60.857C94.781 61.562 94.041 62.099 93.409 61.766L89.6 59.763C89.349 59.631 89.049 59.631 88.797 59.763L84.988 61.766C84.355 62.099 83.616 61.561 83.737 60.857L84.465 56.615C84.513 56.335 84.42 56.05 84.217 55.852L81.135 52.848C80.623 52.349 80.906 51.48 81.613 51.377L85.872 50.758C86.153 50.717 86.396 50.541 86.521 50.286L88.426 46.427C88.741 45.786 89.655 45.786 89.971 46.427Z" fill="#A8C5EF"/>
<path d="M0.241997 91.222C0.241997 90.941 0.242003 90.38 0.523003 89.82L17.631 49.017C18.751 45.792 20.293 42.567 21.557 39.342C24.78 31.77 28.006 24.059 30.25 18.45C32.073 13.963 33.195 10.598 33.195 9.617C33.195 6.954 30.109 6.393 27.866 6.393C25.622 6.393 21.557 7.234 18.051 8.636C15.106 9.898 12.583 11.72 12.583 13.823C12.583 15.085 11.18 16.067 9.919 16.067C8.096 16.067 7.255 15.085 7.255 13.683C7.255 9.335 10.9 6.111 15.387 4.008C19.735 1.905 24.922 0.922997 27.867 0.922997C33.196 0.922997 38.663 3.447 38.663 9.476C38.663 11.3 37.541 14.664 36.138 18.03C42.869 9.056 51.282 0.501999 61.658 0.501999C70.771 0.501999 74.416 9.476 74.416 16.907C74.416 40.323 51.001 58.131 30.389 58.131C29.127 58.131 28.005 58.131 27.024 57.991C31.931 69.769 39.924 87.436 48.758 87.436C53.384 87.436 57.451 85.612 61.236 82.949C67.126 78.883 71.051 73.835 76.38 67.805C76.941 67.245 77.783 66.964 78.483 66.964C80.306 66.964 81.006 68.506 81.006 69.769C81.006 70.329 80.586 71.171 80.306 71.592C77.222 74.957 74.558 77.901 71.893 80.566C63.9 88.418 57.31 92.764 48.758 92.764C35.717 92.764 26.883 71.873 20.434 56.169L5.712 91.363C5.151 92.625 4.449 93.606 3.048 93.606C1.644 93.606 0.241997 92.624 0.241997 91.222ZM30.949 35.977C28.984 39.056 27.202 42.196 25.79 44.825C23.941 48.268 26.387 52.507 30.295 52.521C30.326 52.521 30.357 52.521 30.387 52.521C51.084 52.521 71.62 33.754 68.661 12.516C68.149 8.844 65.06 5.91 61.353 5.971C55.912 6.061 49.114 10.673 42.867 18.308C36.839 25.601 33.753 31.491 30.949 35.977Z" fill="#A8C5EF"/>
<path d="M21.327 99.673C19.69 99.673 17.923 98.533 17.923 96.69C17.923 96.371 17.923 95.706 18.267 95.019L35.358 54.253C36.026 52.325 36.872 50.34 37.69 48.42C38.234 47.144 38.778 45.868 39.278 44.591C42.865 36.164 45.951 28.749 47.973 23.695C50.115 18.42 50.874 15.76 50.874 15.084C50.874 12.8 47.911 12.458 46.145 12.458C44.112 12.458 40.164 13.214 36.552 14.659C33.322 16.043 31.461 17.733 31.461 19.29C31.461 20.918 29.738 22.134 28.197 22.134C26.184 22.134 24.933 20.991 24.933 19.151C24.933 13.99 29.543 10.746 33.411 8.934C37.87 6.776 43.14 5.792 46.145 5.792C51.817 5.792 57.54 8.622 57.54 14.944C57.54 16.224 57.05 18.082 56.406 19.969C62.091 12.977 70.098 5.371 79.936 5.371C89.113 5.371 93.294 14.186 93.294 22.376C93.294 46.313 69.734 64.198 48.668 64.198C47.786 64.198 46.986 64.198 46.243 64.152C51.836 77.462 59.181 92.304 67.037 92.304C71.07 92.304 74.926 90.913 79.169 87.927C84.04 84.565 87.586 80.483 91.692 75.756C92.503 74.822 93.337 73.862 94.208 72.876C94.863 72.222 95.831 71.833 96.76 71.833C98.905 71.833 99.882 73.597 99.882 75.237C99.882 75.988 99.379 76.944 99.082 77.392L97.879 78.716C95.225 81.615 92.932 84.12 90.594 86.458C83.033 93.886 76.135 98.832 67.036 98.832C53.746 98.832 44.752 77.894 38.708 63.202L24.543 97.062C24 98.284 23.148 99.673 21.327 99.673ZM46.145 11.261C49.912 11.261 52.073 12.655 52.073 15.085C52.073 16.619 49.983 21.931 49.084 24.144C47.061 29.203 43.971 36.627 40.388 45.046C39.891 46.317 39.342 47.604 38.793 48.892C37.983 50.793 37.145 52.76 36.477 54.684L19.356 95.522C19.122 95.992 19.122 96.448 19.122 96.692C19.122 97.759 20.263 98.476 21.328 98.476C22.258 98.476 22.833 97.965 23.445 96.588L38.72 60.074L39.27 61.411C45.193 75.836 54.144 97.635 67.039 97.635C75.731 97.635 82.406 92.827 89.753 85.609C92.069 83.293 94.353 80.798 96.998 77.909L98.145 76.657C98.377 76.295 98.687 75.591 98.687 75.239C98.687 75.013 98.633 73.034 96.763 73.034C96.149 73.034 95.489 73.296 95.082 73.7C94.239 74.656 93.407 75.614 92.599 76.545C88.44 81.333 84.847 85.468 79.857 88.913C75.405 92.045 71.331 93.505 67.039 93.505C58.292 93.505 50.534 77.572 44.752 63.691L44.347 62.718L45.391 62.867C46.328 63.002 47.414 63.002 48.67 63.002C69.17 63.002 92.097 45.629 92.097 22.378C92.097 14.765 88.292 6.571 79.938 6.571C69.116 6.571 60.464 16.437 54.898 23.859L52.023 27.693L53.865 23.269C55.464 19.433 56.344 16.477 56.344 14.946C56.344 9.075 50.851 6.992 46.147 6.992C43.274 6.992 38.224 7.939 33.928 10.018C30.369 11.686 26.134 14.622 26.134 19.153C26.134 20.337 26.829 20.938 28.2 20.938C29.135 20.938 30.266 20.204 30.266 19.293C30.266 16.473 33.92 14.488 36.096 13.555C39.42 12.222 43.641 11.261 46.145 11.261ZM48.668 58.589C46.55 58.582 44.719 57.532 43.676 55.779C42.612 53.993 42.562 51.836 43.543 50.01C45.274 46.789 47.016 43.8 48.723 41.125C49.309 40.188 49.907 39.189 50.542 38.129C52.926 34.148 55.894 29.193 60.686 23.396C67.139 15.51 74.043 10.933 79.626 10.842C83.589 10.779 86.966 13.813 87.536 17.903C88.824 27.15 85.806 36.524 79.038 44.3C71.251 53.248 59.897 58.589 48.668 58.589ZM79.749 12.039C79.714 12.039 79.679 12.04 79.644 12.04C74.415 12.126 67.842 16.543 61.611 24.157C56.875 29.886 53.933 34.799 51.569 38.745C50.93 39.812 50.327 40.818 49.737 41.763L49.735 41.768C48.044 44.418 46.315 47.382 44.599 50.577C43.82 52.029 43.859 53.744 44.707 55.166C45.533 56.553 46.981 57.385 48.58 57.391C59.395 57.391 70.685 52.073 78.136 43.513C84.672 36.003 87.59 26.966 86.35 18.068C85.868 14.613 83.04 12.039 79.749 12.039Z" fill="#4F596B"/>
<path d="M102.894 68.265C102.577 68.265 102.261 68.166 101.991 67.969C101.514 67.622 101.278 67.044 101.378 66.462L102.071 62.419C102.091 62.308 102.053 62.194 101.973 62.115L99.037 59.252C98.613 58.84 98.464 58.235 98.646 57.673C98.829 57.111 99.305 56.709 99.89 56.624L103.949 56.034C104.061 56.018 104.157 55.948 104.208 55.847L106.023 52.169C106.284 51.639 106.814 51.309 107.405 51.309C107.995 51.309 108.525 51.638 108.786 52.169L110.602 55.847C110.652 55.948 110.748 56.018 110.858 56.034L114.919 56.624C115.503 56.709 115.979 57.11 116.162 57.672C116.345 58.234 116.196 58.839 115.773 59.252L112.706 62.241L113.43 66.461C113.529 67.043 113.294 67.621 112.817 67.968C112.337 68.316 111.715 68.359 111.195 68.085L107.564 66.176C107.463 66.123 107.345 66.124 107.245 66.176L103.615 68.085C103.386 68.206 103.14 68.265 102.894 68.265ZM107.403 52.509C107.339 52.509 107.181 52.528 107.095 52.7L105.28 56.378C105.056 56.833 104.622 57.148 104.119 57.221L100.062 57.811C99.871 57.839 99.805 57.984 99.785 58.044C99.765 58.105 99.735 58.261 99.872 58.395L102.809 61.259C103.173 61.615 103.338 62.124 103.253 62.623L102.56 66.665C102.527 66.855 102.644 66.963 102.696 67C102.747 67.038 102.89 67.113 103.056 67.026L106.686 65.117C107.135 64.881 107.671 64.881 108.121 65.117L111.751 67.026C111.918 67.113 112.06 67.038 112.111 67C112.162 66.963 112.28 66.854 112.247 66.665L111.417 61.825L114.935 58.396C115.072 58.262 115.04 58.106 115.02 58.044C115 57.983 114.935 57.839 114.744 57.811L110.684 57.221C110.183 57.148 109.749 56.833 109.525 56.378L107.709 52.7C107.625 52.527 107.467 52.509 107.403 52.509Z" fill="#4F596B"/>
</svg>
