<svg width="1175" height="286" viewBox="0 0 1175 286" fill="none" xmlns="http://www.w3.org/2000/svg">
<path d="M136.953 0.161024C117.072 1.18909 95.5216 5.36562 76.4118 11.9517C59.3255 17.8309 39.2202 27.8546 26.8551 36.6253C16.0637 44.3037 8.32346 52.4961 4.05187 60.7207C-0.476646 69.4592 -1.24746 79.4187 1.93214 87.6432C2.95989 90.3419 7.45629 97.7954 8.9658 99.3375L9.86508 100.269L10.7644 98.8556C18.6331 86.3902 24.7674 78.7761 33.5675 70.5837C54.8933 50.6649 85.7258 35.2117 115.434 29.4931C119.963 28.6257 126.226 27.7261 131.332 27.1799C136.664 26.6338 154.232 26.6338 158.311 27.1799C173.213 29.204 184.807 34.1194 192.965 41.8942C196.145 44.9141 197.365 46.906 198.521 50.8576C199.164 53.1065 199.26 54.1346 199.26 59.2107C199.26 65.2506 198.971 67.628 197.622 72.8647C193.318 89.603 181.274 102.775 161.362 112.542C154.071 116.108 146.17 119.256 144.34 119.256C143.633 119.256 141.545 118.935 139.683 118.517C122.05 114.694 108.336 122.694 102.33 140.332C101.399 142.998 99.8574 148.878 99.8574 149.681C99.8574 150.002 100.403 150.355 101.399 150.677L102.908 151.159V152.861C102.908 154.532 102.908 154.564 104.193 155.078C105.189 155.464 106.666 155.56 110.617 155.56C115.531 155.56 117.65 155.271 124.299 153.729C124.491 153.697 125.969 156.684 127.574 160.411C136.375 180.426 145.56 198.514 153.75 211.815C166.95 233.34 178.352 246.769 189.85 254.287C207.193 265.66 224.633 262.383 243.839 244.134C254.855 233.661 260.122 222.609 258.741 212.939C258.42 210.594 258.099 210.08 257.264 210.594C256.685 210.947 256.621 210.851 256.268 208.666C255.818 205.903 255.722 205.55 255.369 205.55C255.208 205.55 253.923 206.899 252.478 208.538C246.44 215.509 240.177 220.746 234.268 223.702C226.399 227.685 219.494 227.814 212.332 224.216C200.513 218.208 187.666 202.53 173.566 176.796C168.492 167.479 156.062 141.52 156.062 140.171C156.062 139.882 156.448 139.496 156.962 139.304C161.908 137.183 175.59 130.597 180.953 127.738C206.037 114.437 220.2 102.936 228.198 89.3781C233.625 80.1576 236.355 69.6199 236.355 58.022C236.355 48.5445 234.814 41.8299 230.799 33.9909C227.523 27.5655 224.889 23.7423 220.971 19.8228C209.602 8.48195 191.038 2.05652 164.252 0.257405C159.916 -0.031739 141.867 -0.0959933 136.953 0.161024Z" fill="#E91E63"/>
<path d="M88.777 50.2151C85.1799 50.8897 80.4265 52.1748 75.4162 53.7812C69.1213 55.8052 62.9227 58.0862 62.9227 58.4075C62.9227 58.536 63.4044 59.4034 64.0146 60.303C66.2629 63.6121 66.6161 65.0578 66.584 70.4552C66.5519 75.9489 66.2307 78.2621 63.0833 94.0686C59.3577 112.927 45.3225 183.735 40.7618 206.674C38.2888 219.043 35.4946 233.275 34.499 238.319C33.5033 243.363 31.769 251.877 30.6449 257.274C27.915 270.286 27.4011 273.916 27.915 276.165C28.1719 277.322 28.6537 278.318 29.3602 279.089C29.9383 279.731 30.677 280.888 30.9661 281.627C31.7048 283.426 33.3106 284.775 35.5267 285.418C39.7341 286.639 49.7225 285.354 58.2336 282.494C61.8949 281.273 70.0527 277.9 70.5666 277.386C70.6629 277.29 70.406 275.748 70.0206 273.981C68.8643 268.969 69.1213 263.796 70.9841 253.58C71.3374 251.62 79.5594 210.208 89.2587 161.536C107.758 68.7845 107.887 68.1099 107.887 66.0216C107.887 63.6442 107.212 60.817 106.281 59.2107C105.767 58.3111 104.964 56.8011 104.514 55.8373C103.23 53.2029 101.945 51.7893 99.9216 50.7934C98.2837 49.9902 97.7056 49.8938 94.5581 49.8295C92.631 49.7974 90.0296 49.958 88.777 50.2151Z" fill="#E91E63"/>
<path d="M227.416 177.28C223.661 177.28 220.504 176.384 217.944 174.592C215.469 172.715 214.232 170.027 214.232 166.528C214.232 162.773 215.128 159.275 216.92 156.032C218.712 152.789 221.101 149.973 224.088 147.584C227.075 145.109 230.317 143.189 233.816 141.824C237.4 140.459 240.941 139.776 244.44 139.776C247.939 139.776 250.541 140.416 252.248 141.696C253.955 142.891 254.808 144.384 254.808 146.176C254.808 147.883 253.997 149.717 252.376 151.68C250.84 153.557 248.579 155.221 245.592 156.672C243.715 157.525 241.539 158.293 239.064 158.976C236.675 159.573 234.584 159.872 232.792 159.872C231.427 159.872 230.744 159.659 230.744 159.232C230.744 158.891 231.341 158.72 232.536 158.72C233.645 158.72 235.352 158.421 237.656 157.824C240.045 157.141 242.349 156.245 244.568 155.136C247.043 153.771 248.792 152.405 249.816 151.04C250.84 149.675 251.352 148.437 251.352 147.328C251.352 146.304 250.925 145.451 250.072 144.768C249.304 144.085 248.195 143.744 246.744 143.744C245.379 143.744 243.843 144.128 242.136 144.896C239.661 146.005 237.101 147.84 234.456 150.4C231.896 152.875 229.763 155.605 228.056 158.592C226.349 161.579 225.496 164.437 225.496 167.168C225.496 169.045 226.008 170.624 227.032 171.904C228.141 173.184 229.763 173.824 231.896 173.824C234.115 173.824 236.675 173.141 239.576 171.776C242.477 170.325 245.421 168.576 248.408 166.528C251.395 164.395 254.168 162.261 256.728 160.128C259.288 157.995 261.336 156.203 262.872 154.752C263.384 154.24 263.768 153.984 264.024 153.984C264.28 153.984 264.408 154.197 264.408 154.624C264.408 155.221 264.152 155.733 263.64 156.16C260.397 159.147 256.856 162.261 253.016 165.504C249.261 168.747 245.208 171.52 240.856 173.824C236.589 176.043 232.109 177.195 227.416 177.28ZM267.204 176.128C263.791 176.128 261.487 175.403 260.292 173.952C259.097 172.416 258.5 170.709 258.5 168.832C258.5 165.931 259.14 163.499 260.42 161.536C261.785 159.573 263.535 157.355 265.668 154.88C263.961 156.331 262.34 157.739 260.804 159.104C259.353 160.384 258.159 161.365 257.22 162.048C256.964 162.304 256.708 162.432 256.452 162.432C256.111 162.432 255.94 162.261 255.94 161.92C255.94 161.237 256.452 160.469 257.476 159.616C259.609 157.995 261.828 156.032 264.132 153.728C266.521 151.339 268.74 149.12 270.788 147.072C272.836 144.939 274.543 143.531 275.908 142.848C276.847 142.336 277.743 141.995 278.596 141.824C279.449 141.568 280.175 141.44 280.772 141.44C281.711 141.44 282.393 141.611 282.82 141.952C283.247 142.208 283.332 142.507 283.076 142.848C281.625 144.384 280.175 146.304 278.724 148.608C277.273 150.827 275.951 153.173 274.756 155.648C273.561 158.123 272.58 160.512 271.812 162.816C271.129 165.035 270.788 166.869 270.788 168.32C270.788 170.112 271.385 171.008 272.58 171.008C273.519 171.008 274.585 170.581 275.78 169.728C277.06 168.875 278.255 167.936 279.364 166.912C280.729 165.717 282.18 164.181 283.716 162.304C285.252 160.341 286.831 158.336 288.452 156.288C290.073 154.155 291.652 152.277 293.188 150.656C294.468 149.205 295.791 148.011 297.156 147.072C298.607 146.048 300.143 145.536 301.764 145.536C302.959 145.536 303.855 145.792 304.452 146.304C305.049 146.816 305.177 147.243 304.836 147.584C303.129 149.376 301.551 151.509 300.1 153.984C298.735 156.459 297.625 158.976 296.772 161.536C296.004 164.011 295.62 166.229 295.62 168.192C295.62 170.069 296.217 171.008 297.412 171.008C298.351 171.008 299.417 170.581 300.612 169.728C301.892 168.875 303.129 167.936 304.324 166.912C305.604 165.717 306.799 164.523 307.908 163.328C309.103 162.048 310.255 160.725 311.364 159.36C311.535 154.923 312.089 151.296 313.028 148.48C314.052 145.579 315.247 143.403 316.612 141.952C317.124 141.269 318.191 140.672 319.812 140.16C321.519 139.648 323.055 139.392 324.42 139.392C326.041 139.392 326.852 139.819 326.852 140.672C326.852 141.013 326.596 141.525 326.084 142.208C325.145 143.317 323.993 144.811 322.628 146.688C321.348 148.48 320.153 150.357 319.044 152.32C317.935 154.197 317.167 155.861 316.74 157.312C316.399 158.677 316.228 159.915 316.228 161.024C316.228 162.645 316.783 163.456 317.892 163.456C318.916 163.456 320.239 162.816 321.86 161.536C322.116 161.28 322.628 160.853 323.396 160.256C324.164 159.659 324.932 159.019 325.7 158.336C326.468 157.653 327.023 157.141 327.364 156.8C327.791 156.373 328.132 156.16 328.388 156.16C328.644 156.16 328.772 156.373 328.772 156.8C328.772 157.312 328.644 157.696 328.388 157.952C327.62 158.72 326.596 159.701 325.316 160.896C324.036 162.091 323.055 162.944 322.372 163.456C321.604 164.053 320.623 164.651 319.428 165.248C318.233 165.845 317.039 166.144 315.844 166.144C314.82 166.144 313.881 165.803 313.028 165.12C312.26 164.437 311.791 163.285 311.62 161.664C308.463 165.419 305.135 168.789 301.636 171.776C298.137 174.677 294.895 176.128 291.908 176.128C288.495 176.128 286.191 175.403 284.996 173.952C283.887 172.416 283.332 170.752 283.332 168.96C283.332 167.68 283.545 166.315 283.972 164.864C281.156 167.936 278.255 170.581 275.268 172.8C272.367 175.019 269.679 176.128 267.204 176.128ZM332.29 176.128C329.645 176.128 327.597 175.317 326.146 173.696C324.695 171.989 323.97 169.813 323.97 167.168C323.97 164.693 324.61 161.963 325.89 158.976C327.255 155.989 329.389 152.96 332.29 149.888C335.277 146.645 338.989 144.043 343.426 142.08C347.863 140.032 352.087 139.008 356.098 139.008C359.341 139.008 362.114 139.733 364.418 141.184C366.722 142.549 368.258 144.299 369.026 146.432C369.965 146.432 371.117 146.688 372.482 147.2C373.933 147.712 374.658 148.651 374.658 150.016C374.658 150.955 374.189 152.021 373.25 153.216C372.653 154.069 371.586 155.349 370.05 157.056C368.599 158.763 367.234 160.597 365.954 162.56C364.93 164.096 364.119 165.547 363.522 166.912C362.925 168.192 362.626 169.301 362.626 170.24C362.626 171.52 363.266 172.16 364.546 172.16C365.997 172.16 368.173 171.349 371.074 169.728C374.231 167.936 377.261 165.888 380.162 163.584C383.063 161.28 385.325 159.445 386.946 158.08C387.373 157.739 387.671 157.568 387.842 157.568C388.183 157.568 388.354 157.781 388.354 158.208C388.354 158.72 388.141 159.189 387.714 159.616C386.946 160.299 385.453 161.579 383.234 163.456C381.015 165.333 378.455 167.296 375.554 169.344C372.738 171.392 369.965 173.056 367.234 174.336C365.869 174.933 364.589 175.403 363.394 175.744C362.285 176 361.261 176.128 360.322 176.128C358.018 176.128 356.269 175.488 355.074 174.208C353.879 172.843 353.282 171.093 353.282 168.96C353.282 168.107 353.41 167.211 353.666 166.272C353.922 165.333 354.221 164.395 354.562 163.456L355.458 161.28C353.239 164.011 351.021 166.315 348.802 168.192C346.583 169.984 344.365 171.563 342.146 172.928C340.269 174.037 338.477 174.848 336.77 175.36C335.149 175.872 333.655 176.128 332.29 176.128ZM336.258 172.8C337.794 172.8 340.013 171.904 342.914 170.112C345.815 168.235 349.186 165.376 353.026 161.536C353.538 161.024 354.477 160.128 355.842 158.848C357.293 157.483 358.829 155.989 360.45 154.368C362.071 152.661 363.437 150.997 364.546 149.376C365.741 147.669 366.338 146.261 366.338 145.152C366.338 143.531 364.93 142.72 362.114 142.72C359.639 142.72 356.653 143.701 353.154 145.664C349.741 147.541 346.455 150.357 343.298 154.112C340.055 157.952 337.666 161.28 336.13 164.096C334.679 166.827 333.954 168.917 333.954 170.368C333.954 171.989 334.722 172.8 336.258 172.8ZM405.325 176.128C401.656 176.128 399.181 175.445 397.901 174.08C396.621 172.629 395.981 171.051 395.981 169.344C395.981 167.125 396.834 164.779 398.541 162.304C399.565 160.853 400.717 159.232 401.997 157.44C403.277 155.563 404.472 153.813 405.581 152.192C406.69 150.571 407.458 149.419 407.885 148.736C408.482 147.883 408.824 147.328 408.909 147.072C409.08 146.731 409.165 146.389 409.165 146.048C409.165 145.536 408.824 145.067 408.141 144.64C407.544 144.128 406.52 143.872 405.069 143.872C404.642 143.872 404.258 143.915 403.917 144C403.661 144 403.362 144 403.021 144C402.338 144 401.954 143.957 401.869 143.872L401.485 144.384C399.096 147.541 396.536 150.656 393.805 153.728C391.074 156.715 388.088 159.488 384.845 162.048C384.504 162.304 384.248 162.432 384.077 162.432C383.736 162.432 383.565 162.261 383.565 161.92C383.565 161.237 384.077 160.469 385.101 159.616C387.746 157.397 390.349 154.923 392.909 152.192C395.469 149.376 397.773 146.432 399.821 143.36C399.053 142.848 398.669 141.824 398.669 140.288C398.669 137.984 399.394 135.509 400.845 132.864C401.869 131.072 402.978 129.749 404.173 128.896C405.453 127.957 406.562 127.488 407.501 127.488C409.293 127.488 410.189 128.555 410.189 130.688C410.189 132.053 409.677 133.76 408.653 135.808C408.226 136.832 407.373 138.155 406.093 139.776C404.898 141.312 403.704 142.421 402.509 143.104C404.301 142.507 406.562 142.123 409.293 141.952C412.109 141.696 414.456 141.568 416.333 141.568C417.442 141.568 418.808 141.909 420.429 142.592C422.05 143.189 422.861 144.299 422.861 145.92C422.861 147.029 422.349 148.224 421.325 149.504C421.069 149.845 420.386 150.656 419.277 151.936C418.168 153.216 416.93 154.752 415.565 156.544C414.285 158.336 413.09 160.128 411.981 161.92C410.872 163.541 409.976 165.035 409.293 166.4C408.696 167.765 408.397 168.917 408.397 169.856C408.397 171.221 409.165 171.904 410.701 171.904C412.493 171.904 414.882 171.051 417.869 169.344C420.856 167.637 424.056 165.461 427.469 162.816C430.968 160.085 434.168 157.269 437.069 154.368C437.41 154.027 437.709 153.856 437.965 153.856C438.306 153.856 438.477 154.069 438.477 154.496C438.477 155.008 438.264 155.477 437.837 155.904C434.85 158.891 431.522 161.963 427.853 165.12C424.269 168.192 420.514 170.795 416.589 172.928C412.749 175.061 408.994 176.128 405.325 176.128ZM468.471 187.264C467.106 186.069 466.082 184.533 465.399 182.656C464.802 180.864 464.503 178.816 464.503 176.512C464.503 174.379 464.716 172.117 465.143 169.728C465.655 167.339 466.295 164.821 467.063 162.176C465.442 164.224 463.607 166.315 461.559 168.448C459.596 170.581 457.719 172.416 455.927 173.952C452.343 176.853 448.46 178.304 444.279 178.304C441.122 178.304 438.434 177.323 436.215 175.36C433.996 173.312 432.887 170.155 432.887 165.888C432.887 164.779 432.972 163.712 433.143 162.688C433.399 161.664 433.698 160.64 434.039 159.616C433.527 160.043 433.015 160.469 432.503 160.896C432.076 161.323 431.65 161.707 431.223 162.048C430.882 162.304 430.54 162.432 430.199 162.432C429.772 162.432 429.559 162.219 429.559 161.792C429.559 161.28 429.986 160.683 430.839 160C431.948 159.061 433.186 157.781 434.551 156.16C436.002 154.539 437.58 152.789 439.287 150.912C442.274 147.584 445.9 144.896 450.167 142.848C454.519 140.8 458.786 139.776 462.967 139.776C466.551 139.776 469.154 140.416 470.775 141.696C472.482 142.976 473.335 144.512 473.335 146.304C475.468 141.781 477.687 137.472 479.991 133.376C482.38 129.195 484.599 125.525 486.647 122.368C488.78 119.211 490.53 116.864 491.895 115.328C492.834 114.219 493.986 113.408 495.351 112.896C496.802 112.384 498.252 112.128 499.703 112.128C501.154 112.128 502.562 112.341 503.927 112.768C505.292 113.195 506.487 113.877 507.511 114.816C506.658 115.328 505.292 116.565 503.415 118.528C501.623 120.405 499.532 122.752 497.143 125.568C494.839 128.384 492.407 131.413 489.847 134.656C487.372 137.899 485.026 141.141 482.807 144.384C480.162 148.224 477.644 152.363 475.255 156.8C472.951 161.237 471.074 165.547 469.623 169.728C468.172 173.824 467.447 177.451 467.447 180.608C467.447 183.168 468.002 185.131 469.111 186.496C469.367 186.837 469.367 187.051 469.111 187.136C468.855 187.307 468.642 187.349 468.471 187.264ZM448.247 173.952C449.783 173.952 451.831 173.184 454.391 171.648C456.951 170.027 460.108 167.296 463.863 163.456C465.058 162.261 465.996 161.237 466.679 160.384C467.447 159.445 468.087 158.549 468.599 157.696C469.026 156.501 469.452 155.349 469.879 154.24C470.306 153.131 470.775 152.021 471.287 150.912C470.775 151.253 470.391 151.424 470.135 151.424C469.452 151.424 469.111 151.04 469.111 150.272C469.111 149.931 469.239 149.504 469.495 148.992C470.348 147.541 470.775 146.261 470.775 145.152C470.775 143.36 469.751 142.464 467.703 142.464C466.594 142.464 465.1 142.805 463.223 143.488C461.09 144.341 458.871 145.664 456.567 147.456C454.348 149.163 452.258 151.211 450.295 153.6C448.418 155.904 446.882 158.293 445.687 160.768C444.578 163.243 444.023 165.589 444.023 167.808C444.023 169.429 444.322 170.88 444.919 172.16C445.602 173.355 446.711 173.952 448.247 173.952ZM595.556 192.256C592.057 192.256 588.175 191.445 583.908 189.824C579.044 187.861 574.905 185.216 571.492 181.888C568.079 178.645 564.751 175.36 561.508 172.032C559.631 172.459 557.881 172.8 556.26 173.056C554.724 173.312 553.359 173.525 552.164 173.696C549.86 173.952 547.684 174.08 545.636 174.08C537.871 174.08 531.556 172.672 526.692 169.856C521.913 166.955 519.524 163.285 519.524 158.848C519.524 155.349 521.145 151.595 524.388 147.584C527.716 143.488 533.135 139.349 540.644 135.168L548.58 131.072C549.433 127.403 550.756 123.349 552.548 118.912C554.34 114.389 557.156 109.867 560.996 105.344C564.836 100.736 570.212 96.5547 577.124 92.8C580.623 90.8373 583.908 89.4293 586.98 88.576C590.052 87.7227 592.868 87.296 595.428 87.296C599.524 87.296 602.724 88.2773 605.028 90.24C607.417 92.1173 608.612 94.5067 608.612 97.408C608.612 99.712 607.801 102.229 606.18 104.96C604.559 107.605 601.913 110.251 598.244 112.896C596.708 114.005 594.361 115.413 591.204 117.12C588.047 118.827 584.591 120.576 580.836 122.368C577.081 124.16 573.455 125.867 569.956 127.488C566.543 129.109 563.684 130.432 561.38 131.456C559.161 132.48 558.052 132.992 558.052 132.992C557.967 133.675 557.881 134.4 557.796 135.168C557.796 135.936 557.796 136.661 557.796 137.344C557.796 139.989 558.052 142.592 558.564 145.152C562.831 143.019 567.097 141.312 571.364 140.032C575.631 138.752 579.769 137.813 583.78 137.216C585.657 136.875 587.535 136.619 589.412 136.448C591.289 136.277 593.124 136.192 594.916 136.192C598.756 136.192 601.999 136.789 604.644 137.984C607.289 139.093 608.612 141.227 608.612 144.384C608.612 147.2 607.375 149.888 604.9 152.448C602.511 155.008 599.311 157.397 595.3 159.616C591.375 161.835 587.108 163.84 582.5 165.632C577.892 167.424 573.369 168.917 568.932 170.112C571.492 173.696 574.393 176.811 577.636 179.456C580.879 182.187 584.249 184.277 587.748 185.728C590.137 186.667 592.271 187.349 594.148 187.776C596.111 188.203 597.775 188.416 599.14 188.416C601.529 188.416 603.279 187.947 604.388 187.008C605.497 186.069 606.052 184.96 606.052 183.68C606.052 181.632 604.815 179.541 602.34 177.408C599.865 175.36 596.367 174.336 591.844 174.336C591.247 174.336 590.649 174.379 590.052 174.464C589.455 174.464 588.815 174.507 588.132 174.592H587.748C587.321 174.592 587.108 174.507 587.108 174.336C587.108 174.08 587.321 173.781 587.748 173.44C588.26 173.099 588.815 172.885 589.412 172.8C590.607 172.629 591.759 172.501 592.868 172.416C593.977 172.331 595.044 172.288 596.068 172.288C601.103 172.288 604.772 173.227 607.076 175.104C609.465 176.896 610.66 178.987 610.66 181.376C610.66 184.021 609.337 186.496 606.692 188.8C604.047 191.104 600.335 192.256 595.556 192.256ZM558.82 126.976C560.356 126.379 562.617 125.483 565.604 124.288C568.676 123.093 572.047 121.685 575.716 120.064C579.471 118.443 583.225 116.651 586.98 114.688C590.735 112.725 594.063 110.677 596.964 108.544C600.548 105.984 603.151 103.595 604.772 101.376C606.479 99.072 607.332 97.1093 607.332 95.488C607.332 92.5013 605.156 91.008 600.804 91.008C598.671 91.008 596.111 91.4773 593.124 92.416C590.223 93.2693 586.895 94.7627 583.14 96.896C575.716 100.907 570.084 105.6 566.244 110.976C562.404 116.352 559.929 121.685 558.82 126.976ZM546.276 171.648C548.409 171.648 550.671 171.52 553.06 171.264C554.169 171.093 555.279 170.965 556.388 170.88C557.497 170.709 558.607 170.496 559.716 170.24C557.583 167.765 555.663 165.205 553.956 162.56C552.335 159.915 551.055 157.141 550.116 154.24C548.751 154.923 547.513 155.563 546.404 156.16C545.295 156.757 544.356 157.397 543.588 158.08C543.161 158.421 542.863 158.677 542.692 158.848C542.521 159.019 542.436 159.019 542.436 158.848C542.436 157.739 542.991 156.544 544.1 155.264C545.209 153.899 546.745 152.491 548.708 151.04L548.964 150.912C548.452 148.864 548.068 146.816 547.812 144.768C547.641 142.72 547.599 140.672 547.684 138.624L543.332 141.056C538.639 143.957 534.884 147.2 532.068 150.784C529.252 154.368 527.844 157.781 527.844 161.024C527.844 164.011 529.295 166.528 532.196 168.576C535.097 170.624 539.791 171.648 546.276 171.648ZM567.652 168.32C571.321 167.467 574.948 166.144 578.532 164.352C582.116 162.56 585.359 160.555 588.26 158.336C591.161 156.117 593.465 153.941 595.172 151.808C596.964 149.589 597.86 147.712 597.86 146.176C597.86 145.067 597.305 144.171 596.196 143.488C595.172 142.805 593.508 142.464 591.204 142.464C590.521 142.464 589.711 142.507 588.772 142.592C587.919 142.677 586.98 142.805 585.956 142.976C582.457 143.573 578.319 144.512 573.54 145.792C568.761 147.072 564.111 148.565 559.588 150.272C561.124 156.928 563.812 162.944 567.652 168.32ZM646.726 180.992C646.043 180.992 645.702 180.608 645.702 179.84C645.702 179.669 645.745 179.499 645.83 179.328C645.83 179.157 645.873 178.944 645.958 178.688C646.47 176.725 647.579 174.08 649.286 170.752C651.078 167.424 653.254 163.712 655.814 159.616C658.459 155.435 661.275 151.168 664.262 146.816C663.75 145.024 663.537 143.573 663.622 142.464C663.707 141.611 664.262 140.629 665.286 139.52C666.395 138.325 667.59 137.344 668.87 136.576C670.235 135.723 671.302 135.381 672.07 135.552C675.398 131.029 678.513 126.891 681.414 123.136C684.315 119.381 686.747 116.395 688.71 114.176C690.758 111.957 692.038 110.848 692.55 110.848C693.233 110.848 693.745 111.147 694.086 111.744C694.427 112.341 694.598 112.896 694.598 113.408C694.598 113.408 693.574 114.688 691.526 117.248C689.563 119.723 686.961 123.051 683.718 127.232C680.561 131.328 677.19 135.851 673.606 140.8C673.691 140.885 673.734 141.013 673.734 141.184C673.734 141.355 673.777 141.525 673.862 141.696L678.47 141.312C682.822 140.971 687.43 140.203 692.294 139.008C697.158 137.728 701.937 136.149 706.63 134.272C711.323 132.309 715.505 130.091 719.174 127.616C723.27 124.8 726.641 121.813 729.286 118.656C732.017 115.413 733.382 112.469 733.382 109.824C733.382 107.179 731.803 105.003 728.646 103.296C725.489 101.504 720.155 100.608 712.646 100.608C710.086 100.608 706.929 100.907 703.174 101.504C699.419 102.101 695.366 102.912 691.014 103.936C686.747 104.96 682.481 106.197 678.214 107.648C674.033 109.013 670.193 110.507 666.694 112.128C663.281 113.749 660.55 115.413 658.502 117.12C657.137 118.315 656.667 119.296 657.094 120.064C657.265 120.32 657.35 120.576 657.35 120.832C657.35 121.003 657.265 121.088 657.094 121.088C656.838 121.088 656.497 120.96 656.07 120.704C654.705 119.851 653.681 118.784 652.998 117.504C652.401 116.139 652.102 114.901 652.102 113.792C652.102 112.768 652.273 112.085 652.614 111.744C654.15 109.525 656.667 107.392 660.166 105.344C663.75 103.296 667.931 101.419 672.71 99.712C677.489 98.0053 682.566 96.512 687.942 95.232C693.318 93.952 698.566 92.9707 703.686 92.288C708.891 91.6053 713.627 91.264 717.894 91.264C721.393 91.264 724.337 91.52 726.726 92.032C730.054 92.7147 732.87 94.3787 735.174 97.024C737.478 99.584 738.63 102.741 738.63 106.496C738.63 109.995 737.222 113.835 734.406 118.016C731.675 122.197 726.939 126.251 720.198 130.176C716.443 132.395 712.134 134.485 707.27 136.448C702.406 138.325 697.457 139.904 692.422 141.184C687.473 142.464 682.865 143.232 678.598 143.488C677.915 143.573 677.233 143.616 676.55 143.616C675.867 143.616 675.185 143.616 674.502 143.616C675.867 147.029 678.001 150.571 680.902 154.24C683.889 157.824 687.217 161.195 690.886 164.352C694.555 167.424 698.225 169.941 701.894 171.904C705.563 173.781 708.721 174.72 711.366 174.72C713.414 174.72 715.249 174.251 716.87 173.312C718.577 172.288 719.558 170.965 719.814 169.344C719.814 169.003 719.985 168.875 720.326 168.96C720.667 168.96 720.795 169.173 720.71 169.6C720.369 172.587 718.747 174.763 715.846 176.128C712.945 177.493 709.702 178.176 706.118 178.176C701.51 178.176 697.115 177.323 692.934 175.616C688.838 173.909 684.998 171.733 681.414 169.088C677.915 166.357 674.843 163.413 672.198 160.256C669.638 157.099 667.59 154.069 666.054 151.168C662.385 156.544 658.971 161.707 655.814 166.656C652.742 171.605 650.566 175.701 649.286 178.944C649.115 179.541 648.731 180.011 648.134 180.352C647.622 180.779 647.153 180.992 646.726 180.992ZM735.291 177.28C731.536 177.28 728.379 176.384 725.819 174.592C723.344 172.715 722.107 170.027 722.107 166.528C722.107 162.773 723.003 159.275 724.795 156.032C726.587 152.789 728.976 149.973 731.963 147.584C734.95 145.109 738.192 143.189 741.691 141.824C745.275 140.459 748.816 139.776 752.315 139.776C755.814 139.776 758.416 140.416 760.123 141.696C761.83 142.891 762.683 144.384 762.683 146.176C762.683 147.883 761.872 149.717 760.251 151.68C758.715 153.557 756.454 155.221 753.467 156.672C751.59 157.525 749.414 158.293 746.939 158.976C744.55 159.573 742.459 159.872 740.667 159.872C739.302 159.872 738.619 159.659 738.619 159.232C738.619 158.891 739.216 158.72 740.411 158.72C741.52 158.72 743.227 158.421 745.531 157.824C747.92 157.141 750.224 156.245 752.443 155.136C754.918 153.771 756.667 152.405 757.691 151.04C758.715 149.675 759.227 148.437 759.227 147.328C759.227 146.304 758.8 145.451 757.947 144.768C757.179 144.085 756.07 143.744 754.619 143.744C753.254 143.744 751.718 144.128 750.011 144.896C747.536 146.005 744.976 147.84 742.331 150.4C739.771 152.875 737.638 155.605 735.931 158.592C734.224 161.579 733.371 164.437 733.371 167.168C733.371 169.045 733.883 170.624 734.907 171.904C736.016 173.184 737.638 173.824 739.771 173.824C741.99 173.824 744.55 173.141 747.451 171.776C750.352 170.325 753.296 168.576 756.283 166.528C759.27 164.395 762.043 162.261 764.603 160.128C767.163 157.995 769.211 156.203 770.747 154.752C771.259 154.24 771.643 153.984 771.899 153.984C772.155 153.984 772.283 154.197 772.283 154.624C772.283 155.221 772.027 155.733 771.515 156.16C768.272 159.147 764.731 162.261 760.891 165.504C757.136 168.747 753.083 171.52 748.731 173.824C744.464 176.043 739.984 177.195 735.291 177.28ZM778.663 177.28C774.994 177.28 771.879 176.384 769.319 174.592C766.844 172.715 765.607 170.027 765.607 166.528C765.607 162.773 766.503 159.275 768.295 156.032C770.172 152.789 772.604 149.973 775.591 147.584C778.578 145.109 781.82 143.189 785.319 141.824C788.903 140.459 792.444 139.776 795.943 139.776C799.442 139.776 802.002 140.416 803.623 141.696C805.33 142.976 806.183 144.512 806.183 146.304C806.183 147.499 805.842 148.693 805.159 149.888C804.476 150.997 803.538 151.552 802.343 151.552C801.575 151.552 801.191 151.253 801.191 150.656C801.191 150.229 801.319 149.845 801.575 149.504C802.599 147.712 803.111 146.133 803.111 144.768C803.111 143.061 802.215 142.208 800.423 142.208C798.972 142.208 797.095 142.763 794.791 143.872C792.914 144.725 790.908 146.048 788.775 147.84C786.727 149.547 784.807 151.552 783.015 153.856C781.223 156.075 779.73 158.379 778.535 160.768C777.426 163.072 776.871 165.248 776.871 167.296C776.871 169.259 777.426 170.88 778.535 172.16C779.644 173.44 781.308 174.08 783.527 174.08C784.978 174.08 786.684 173.739 788.647 173.056C790.695 172.373 792.956 171.264 795.431 169.728C797.479 168.448 799.612 166.912 801.831 165.12C804.135 163.328 806.354 161.493 808.487 159.616C810.62 157.739 812.455 156.117 813.991 154.752C814.503 154.24 814.93 153.984 815.271 153.984C815.612 153.984 815.783 154.197 815.783 154.624C815.783 155.221 815.527 155.733 815.015 156.16C812.796 158.208 810.364 160.427 807.719 162.816C805.074 165.12 802.3 167.296 799.399 169.344C796.583 171.392 793.81 173.056 791.079 174.336C786.642 176.299 782.503 177.28 778.663 177.28ZM819.606 177.152C816.278 177.152 813.761 176.341 812.054 174.72C810.433 173.013 809.622 170.837 809.622 168.192C809.622 166.571 809.835 164.992 810.262 163.456C810.689 161.92 811.158 160.555 811.67 159.36C811.073 159.957 810.475 160.512 809.878 161.024C809.366 161.451 808.939 161.792 808.598 162.048C808.257 162.304 807.958 162.432 807.702 162.432C807.361 162.432 807.19 162.219 807.19 161.792C807.19 161.195 807.617 160.512 808.47 159.744C811.457 157.269 813.803 155.093 815.51 153.216C817.217 151.253 819.009 149.461 820.886 147.84C824.043 145.109 827.414 142.976 830.998 141.44C834.582 139.904 838.166 139.136 841.75 139.136C845.505 139.136 848.449 140.032 850.582 141.824C852.715 143.616 853.782 146.261 853.782 149.76C853.782 151.723 853.185 153.984 851.99 156.544C850.881 159.104 849.089 161.749 846.614 164.48C845.59 165.589 844.438 166.699 843.158 167.808C841.878 168.832 840.769 169.6 839.83 170.112C844.011 169.685 847.937 168.235 851.606 165.76C855.275 163.2 858.561 160.683 861.462 158.208C861.889 157.952 862.187 157.824 862.358 157.824C862.785 157.824 862.998 158.037 862.998 158.464C862.998 158.805 862.785 159.189 862.358 159.616C858.689 163.115 854.721 166.059 850.454 168.448C846.273 170.837 841.622 171.989 836.502 171.904C833.515 173.525 830.571 174.805 827.67 175.744C824.854 176.683 822.166 177.152 819.606 177.152ZM825.366 173.568C826.561 173.568 827.841 173.355 829.206 172.928C830.571 172.501 831.937 171.947 833.302 171.264C832.79 171.264 832.278 171.008 831.766 170.496C831.339 169.984 831.126 169.301 831.126 168.448C831.126 166.741 831.766 164.992 833.046 163.2C834.326 161.408 835.905 159.872 837.782 158.592C839.659 157.312 841.494 156.672 843.286 156.672C844.31 156.672 845.249 156.971 846.102 157.568C847.041 158.08 847.553 158.805 847.638 159.744C849.089 158.123 850.07 156.373 850.582 154.496C851.179 152.619 851.478 150.869 851.478 149.248C851.478 147.029 850.753 145.365 849.302 144.256C847.937 143.061 846.059 142.464 843.67 142.464C841.366 142.464 838.806 143.275 835.99 144.896C833.259 146.517 830.657 148.608 828.182 151.168C825.793 153.728 823.787 156.501 822.166 159.488C820.63 162.475 819.862 165.333 819.862 168.064C819.862 171.733 821.697 173.568 825.366 173.568ZM849.483 210.176C844.278 210.176 839.968 209.579 836.555 208.384C833.142 207.189 830.411 205.568 828.363 203.52C826.998 202.069 825.718 200.149 824.523 197.76C823.328 195.456 822.731 193.493 822.731 191.872C822.731 191.275 822.859 190.976 823.115 190.976C823.712 190.976 824.096 191.317 824.267 192C824.267 192.256 824.566 193.237 825.163 194.944C825.675 196.651 826.656 198.528 828.107 200.576C829.558 202.624 831.691 204.416 834.507 205.952C837.323 207.488 840.992 208.256 845.515 208.256C850.891 208.256 855.712 206.976 859.979 204.416C864.246 201.941 868.043 198.656 871.371 194.56C874.784 190.549 877.899 186.155 880.715 181.376C883.531 176.597 886.219 171.904 888.779 167.296C891.339 162.688 893.942 158.635 896.587 155.136C895.478 156.331 894.07 157.824 892.363 159.616C890.742 161.323 888.992 163.072 887.115 164.864C885.238 166.656 883.446 168.277 881.739 169.728C880.032 171.179 878.624 172.245 877.515 172.928C875.638 174.037 873.846 174.848 872.139 175.36C870.518 175.872 869.024 176.128 867.659 176.128C865.014 176.128 862.966 175.317 861.515 173.696C860.064 171.989 859.339 169.813 859.339 167.168C859.339 164.693 859.979 161.963 861.259 158.976C862.624 155.989 864.758 152.96 867.659 149.888C870.646 146.645 874.358 144.043 878.795 142.08C883.232 140.032 887.456 139.008 891.467 139.008C892.918 139.008 894.326 139.179 895.691 139.52C897.056 139.776 898.294 140.245 899.403 140.928C900.939 141.867 902.048 142.763 902.731 143.616C903.499 144.384 904.054 145.323 904.395 146.432C904.907 146.432 905.718 146.688 906.827 147.2C907.936 147.627 908.96 148.181 909.899 148.864C910.838 149.461 911.307 150.101 911.307 150.784C911.307 151.125 910.966 151.509 910.283 151.936C908.576 152.789 906.656 154.837 904.523 158.08C902.39 161.237 900 165.035 897.355 169.472C894.795 173.824 891.894 178.347 888.651 183.04C885.494 187.819 881.952 192.256 878.027 196.352C874.102 200.448 869.75 203.776 864.971 206.336C860.278 208.896 855.115 210.176 849.483 210.176ZM871.243 172.8C872.95 172.8 875.04 171.947 877.515 170.24C879.392 168.96 881.44 167.381 883.659 165.504C885.878 163.541 888.054 161.493 890.187 159.36C892.32 157.227 894.155 155.264 895.691 153.472C898.507 150.229 899.915 147.584 899.915 145.536C899.915 143.829 898.891 142.976 896.843 142.976C894.795 142.976 891.979 143.957 888.395 145.92C886.347 147.029 884.171 148.608 881.867 150.656C879.563 152.704 877.387 154.923 875.339 157.312C873.376 159.701 871.798 161.92 870.603 163.968C869.238 166.443 868.555 168.448 868.555 169.984C868.555 171.861 869.451 172.8 871.243 172.8ZM913.11 176.64C912.257 176.64 911.233 176.427 910.038 176C908.843 175.659 907.649 174.976 906.454 173.952C907.393 172.672 908.758 170.965 910.55 168.832C912.257 166.613 914.091 164.181 916.054 161.536C918.017 158.891 919.851 156.245 921.558 153.6C920.193 154.965 918.699 156.416 917.078 157.952C915.457 159.488 913.835 160.896 912.214 162.176C911.873 162.517 911.489 162.688 911.062 162.688C910.721 162.688 910.55 162.517 910.55 162.176C910.55 161.749 910.891 161.237 911.574 160.64C913.963 158.507 916.609 156.075 919.51 153.344C922.497 150.528 924.673 147.669 926.038 144.768C926.465 143.744 926.678 142.805 926.678 141.952C926.678 140.843 926.465 140.16 926.038 139.904C925.697 139.648 925.526 139.307 925.526 138.88C925.526 138.112 925.91 137.728 926.678 137.728C927.105 137.728 927.446 137.813 927.702 137.984C928.641 138.411 929.537 139.221 930.39 140.416C931.243 141.611 931.67 143.403 931.67 145.792C931.67 147.157 931.499 148.736 931.158 150.528C930.817 152.235 930.219 154.197 929.366 156.416C930.646 154.709 931.926 153.045 933.206 151.424C934.571 149.803 935.809 148.352 936.918 147.072C939.222 144.427 941.526 142.549 943.83 141.44C946.219 140.245 948.353 139.648 950.23 139.648C952.449 139.648 954.241 140.288 955.606 141.568C956.971 142.848 957.654 144.512 957.654 146.56C957.654 148.181 957.227 149.845 956.374 151.552C956.118 152.235 955.521 153.301 954.582 154.752C953.643 156.117 952.619 157.611 951.51 159.232C950.401 160.853 949.377 162.304 948.438 163.584C947.329 164.949 946.561 166.144 946.134 167.168C945.707 168.107 945.494 168.875 945.494 169.472C945.494 170.325 945.963 170.752 946.902 170.752C948.097 170.752 949.761 170.112 951.894 168.832C953.174 168.064 954.625 167.04 956.246 165.76C957.953 164.395 959.617 163.029 961.238 161.664C962.945 160.213 964.31 159.019 965.334 158.08C965.675 157.739 965.974 157.568 966.23 157.568C966.571 157.568 966.742 157.781 966.742 158.208C966.742 158.72 966.529 159.189 966.102 159.616C963.542 162.005 960.555 164.608 957.142 167.424C953.814 170.24 950.529 172.416 947.286 173.952C944.641 175.232 942.209 175.872 939.99 175.872C938.113 175.872 936.619 175.403 935.51 174.464C934.401 173.44 933.846 171.989 933.846 170.112C933.846 168.747 934.187 167.125 934.87 165.248C935.723 162.944 936.918 160.64 938.454 158.336C940.075 156.032 941.739 153.856 943.446 151.808C945.238 149.675 946.774 147.883 948.054 146.432C949.163 145.237 949.718 144.213 949.718 143.36C949.718 142.592 949.206 142.208 948.182 142.208C947.158 142.208 945.622 142.805 943.574 144C941.611 145.109 939.393 146.944 936.918 149.504C933.419 153.173 930.347 157.141 927.702 161.408C925.057 165.675 922.027 169.685 918.614 173.44C916.737 175.573 914.902 176.64 913.11 176.64ZM993.169 136.832C991.974 136.832 991.078 136.448 990.481 135.68C989.884 134.912 989.585 134.101 989.585 133.248C989.585 131.541 990.396 129.877 992.017 128.256C993.638 126.549 995.345 125.696 997.137 125.696C998.332 125.696 999.228 126.08 999.825 126.848C1000.42 127.616 1000.72 128.427 1000.72 129.28C1000.72 131.072 999.91 132.779 998.289 134.4C996.753 136.021 995.046 136.832 993.169 136.832ZM973.585 176.128C970.086 176.128 967.697 175.403 966.417 173.952C965.222 172.416 964.625 170.709 964.625 168.832C964.625 167.296 964.881 165.845 965.393 164.48C965.905 163.029 966.332 162.005 966.673 161.408C967.185 160.555 967.868 159.573 968.721 158.464C969.66 157.355 970.684 156.16 971.793 154.88C970.086 156.331 968.465 157.739 966.929 159.104C965.478 160.469 964.284 161.493 963.345 162.176C963.089 162.432 962.833 162.56 962.577 162.56C962.236 162.56 962.065 162.347 962.065 161.92C962.065 161.237 962.534 160.555 963.473 159.872C965.692 157.995 967.825 155.947 969.873 153.728C972.006 151.509 974.012 149.461 975.889 147.584C977.766 145.621 979.43 144.256 980.881 143.488C982.417 142.635 983.654 142.08 984.593 141.824C985.532 141.568 986.3 141.44 986.897 141.44C987.836 141.44 988.518 141.611 988.945 141.952C989.372 142.208 989.457 142.507 989.201 142.848C987.75 144.299 986.3 146.176 984.849 148.48C983.484 150.699 982.204 153.045 981.009 155.52C979.814 157.995 978.833 160.341 978.065 162.56C977.382 164.779 977.041 166.656 977.041 168.192C977.041 170.325 977.894 171.392 979.601 171.392C981.222 171.392 983.313 170.667 985.873 169.216C988.518 167.68 991.249 165.76 994.065 163.456C996.966 161.152 999.654 158.891 1002.13 156.672C1002.47 156.331 1002.77 156.16 1003.03 156.16C1003.45 156.16 1003.67 156.373 1003.67 156.8C1003.75 157.227 1003.67 157.525 1003.41 157.696C1000.59 160.341 997.393 163.115 993.809 166.016C990.31 168.832 986.769 171.221 983.185 173.184C979.686 175.147 976.486 176.128 973.585 176.128ZM1008.32 178.176C1005.59 178.176 1003.5 177.365 1002.05 175.744C1000.6 174.123 999.875 171.861 999.875 168.96C999.875 166.229 1000.6 163.029 1002.05 159.36L1002.31 158.72L1000 160.896C999.662 161.237 999.278 161.408 998.851 161.408C998.424 161.408 998.211 161.237 998.211 160.896C998.211 160.469 998.51 159.957 999.107 159.36C1001.33 157.397 1003.59 155.349 1005.89 153.216C1008.28 150.997 1010.29 148.907 1011.91 146.944C1011.31 147.2 1010.67 147.328 1009.99 147.328C1009.3 147.328 1008.79 147.157 1008.45 146.816C1007.85 146.389 1007.56 145.621 1007.56 144.512C1007.56 143.573 1007.98 142.592 1008.84 141.568C1009.77 140.544 1011.65 139.648 1014.47 138.88C1015.06 138.709 1015.66 138.581 1016.26 138.496C1016.94 138.411 1017.58 138.325 1018.18 138.24C1020.91 134.4 1023.3 130.859 1025.35 127.616C1027.4 124.288 1029.02 122.069 1030.21 120.96C1030.72 120.363 1031.62 119.851 1032.9 119.424C1034.26 118.997 1035.67 118.656 1037.12 118.4C1038.66 118.144 1039.85 118.016 1040.71 118.016C1043.52 118.016 1044.93 118.272 1044.93 118.784C1044.93 119.125 1044.29 119.936 1043.01 121.216C1040.88 123.264 1038.36 125.824 1035.46 128.896C1032.64 131.883 1029.74 135.125 1026.76 138.624C1029.23 138.965 1031.49 139.605 1033.54 140.544C1035.67 141.483 1037.21 142.677 1038.15 144.128C1038.49 144.555 1038.66 145.067 1038.66 145.664C1038.66 146.347 1038.45 146.688 1038.02 146.688C1037.68 146.688 1037.29 146.475 1036.87 146.048C1035.08 144.256 1032.09 143.36 1027.91 143.36C1027.05 143.36 1026.16 143.403 1025.22 143.488C1024.37 143.573 1023.47 143.701 1022.53 143.872C1019.63 147.627 1016.98 151.381 1014.6 155.136C1012.21 158.891 1010.5 162.389 1009.48 165.632C1008.96 167.168 1008.71 168.576 1008.71 169.856C1008.71 171.136 1009.01 172.203 1009.6 173.056C1010.2 173.824 1011.1 174.208 1012.29 174.208C1013.06 174.208 1014 173.995 1015.11 173.568C1016.73 172.971 1018.61 171.989 1020.74 170.624C1022.87 169.173 1025.01 167.552 1027.14 165.76C1029.36 163.968 1031.41 162.219 1033.28 160.512C1035.25 158.805 1036.87 157.355 1038.15 156.16C1039.43 154.965 1040.15 154.283 1040.32 154.112C1040.58 153.856 1040.79 153.728 1040.96 153.728C1041.3 153.728 1041.48 153.984 1041.48 154.496C1041.48 155.093 1041.22 155.648 1040.71 156.16C1039.85 157.013 1038.53 158.293 1036.74 160C1035.03 161.707 1033.03 163.627 1030.72 165.76C1028.5 167.808 1026.12 169.771 1023.56 171.648C1021 173.525 1018.39 175.061 1015.75 176.256C1013.19 177.536 1010.71 178.176 1008.32 178.176ZM1064.04 136.832C1062.85 136.832 1061.95 136.448 1061.36 135.68C1060.76 134.912 1060.46 134.101 1060.46 133.248C1060.46 131.541 1061.27 129.877 1062.89 128.256C1064.51 126.549 1066.22 125.696 1068.01 125.696C1069.21 125.696 1070.1 126.08 1070.7 126.848C1071.3 127.616 1071.6 128.427 1071.6 129.28C1071.6 131.072 1070.79 132.779 1069.16 134.4C1067.63 136.021 1065.92 136.832 1064.04 136.832ZM1044.46 176.128C1040.96 176.128 1038.57 175.403 1037.29 173.952C1036.1 172.416 1035.5 170.709 1035.5 168.832C1035.5 167.296 1035.76 165.845 1036.27 164.48C1036.78 163.029 1037.21 162.005 1037.55 161.408C1038.06 160.555 1038.74 159.573 1039.6 158.464C1040.53 157.355 1041.56 156.16 1042.67 154.88C1040.96 156.331 1039.34 157.739 1037.8 159.104C1036.35 160.469 1035.16 161.493 1034.22 162.176C1033.96 162.432 1033.71 162.56 1033.45 162.56C1033.11 162.56 1032.94 162.347 1032.94 161.92C1032.94 161.237 1033.41 160.555 1034.35 159.872C1036.57 157.995 1038.7 155.947 1040.75 153.728C1042.88 151.509 1044.89 149.461 1046.76 147.584C1048.64 145.621 1050.31 144.256 1051.76 143.488C1053.29 142.635 1054.53 142.08 1055.47 141.824C1056.41 141.568 1057.17 141.44 1057.77 141.44C1058.71 141.44 1059.39 141.611 1059.82 141.952C1060.25 142.208 1060.33 142.507 1060.08 142.848C1058.63 144.299 1057.17 146.176 1055.72 148.48C1054.36 150.699 1053.08 153.045 1051.88 155.52C1050.69 157.995 1049.71 160.341 1048.94 162.56C1048.26 164.779 1047.92 166.656 1047.92 168.192C1047.92 170.325 1048.77 171.392 1050.48 171.392C1052.1 171.392 1054.19 170.667 1056.75 169.216C1059.39 167.68 1062.12 165.76 1064.94 163.456C1067.84 161.152 1070.53 158.891 1073 156.672C1073.35 156.331 1073.64 156.16 1073.9 156.16C1074.33 156.16 1074.54 156.373 1074.54 156.8C1074.63 157.227 1074.54 157.525 1074.28 157.696C1071.47 160.341 1068.27 163.115 1064.68 166.016C1061.19 168.832 1057.64 171.221 1054.06 173.184C1050.56 175.147 1047.36 176.128 1044.46 176.128ZM1080.61 177.152C1077.28 177.152 1074.76 176.341 1073.05 174.72C1071.43 173.013 1070.62 170.837 1070.62 168.192C1070.62 166.571 1070.84 164.992 1071.26 163.456C1071.69 161.92 1072.16 160.555 1072.67 159.36C1072.07 159.957 1071.48 160.512 1070.88 161.024C1070.37 161.451 1069.94 161.792 1069.6 162.048C1069.26 162.304 1068.96 162.432 1068.7 162.432C1068.36 162.432 1068.19 162.219 1068.19 161.792C1068.19 161.195 1068.62 160.512 1069.47 159.744C1072.46 157.269 1074.8 155.093 1076.51 153.216C1078.22 151.253 1080.01 149.461 1081.89 147.84C1085.04 145.109 1088.41 142.976 1092 141.44C1095.58 139.904 1099.17 139.136 1102.75 139.136C1106.5 139.136 1109.45 140.032 1111.58 141.824C1113.72 143.616 1114.78 146.261 1114.78 149.76C1114.78 151.723 1114.18 153.984 1112.99 156.544C1111.88 159.104 1110.09 161.749 1107.61 164.48C1106.59 165.589 1105.44 166.699 1104.16 167.808C1102.88 168.832 1101.77 169.6 1100.83 170.112C1105.01 169.685 1108.94 168.235 1112.61 165.76C1116.28 163.2 1119.56 160.683 1122.46 158.208C1122.89 157.952 1123.19 157.824 1123.36 157.824C1123.78 157.824 1124 158.037 1124 158.464C1124 158.805 1123.78 159.189 1123.36 159.616C1119.69 163.115 1115.72 166.059 1111.45 168.448C1107.27 170.837 1102.62 171.989 1097.5 171.904C1094.52 173.525 1091.57 174.805 1088.67 175.744C1085.85 176.683 1083.17 177.152 1080.61 177.152ZM1086.37 173.568C1087.56 173.568 1088.84 173.355 1090.21 172.928C1091.57 172.501 1092.94 171.947 1094.3 171.264C1093.79 171.264 1093.28 171.008 1092.77 170.496C1092.34 169.984 1092.13 169.301 1092.13 168.448C1092.13 166.741 1092.77 164.992 1094.05 163.2C1095.33 161.408 1096.9 159.872 1098.78 158.592C1100.66 157.312 1102.49 156.672 1104.29 156.672C1105.31 156.672 1106.25 156.971 1107.1 157.568C1108.04 158.08 1108.55 158.805 1108.64 159.744C1110.09 158.123 1111.07 156.373 1111.58 154.496C1112.18 152.619 1112.48 150.869 1112.48 149.248C1112.48 147.029 1111.75 145.365 1110.3 144.256C1108.94 143.061 1107.06 142.464 1104.67 142.464C1102.37 142.464 1099.81 143.275 1096.99 144.896C1094.26 146.517 1091.66 148.608 1089.18 151.168C1086.79 153.728 1084.79 156.501 1083.17 159.488C1081.63 162.475 1080.86 165.333 1080.86 168.064C1080.86 171.733 1082.7 173.568 1086.37 173.568ZM1121.23 176.64C1120.38 176.64 1119.36 176.427 1118.16 176C1116.97 175.659 1115.77 174.976 1114.58 173.952C1115.52 172.672 1116.88 170.965 1118.67 168.832C1120.38 166.613 1122.22 164.181 1124.18 161.536C1126.14 158.891 1127.98 156.245 1129.68 153.6C1128.32 154.965 1126.82 156.416 1125.2 157.952C1123.58 159.488 1121.96 160.896 1120.34 162.176C1120 162.517 1119.61 162.688 1119.19 162.688C1118.85 162.688 1118.67 162.517 1118.67 162.176C1118.67 161.749 1119.02 161.237 1119.7 160.64C1122.09 158.507 1124.73 156.075 1127.64 153.344C1130.62 150.528 1132.8 147.669 1134.16 144.768C1134.59 143.744 1134.8 142.805 1134.8 141.952C1134.8 140.843 1134.59 140.16 1134.16 139.904C1133.82 139.648 1133.65 139.307 1133.65 138.88C1133.65 138.112 1134.04 137.728 1134.8 137.728C1135.23 137.728 1135.57 137.813 1135.83 137.984C1136.77 138.411 1137.66 139.221 1138.52 140.416C1139.37 141.611 1139.8 143.403 1139.8 145.792C1139.8 147.157 1139.62 148.736 1139.28 150.528C1138.94 152.235 1138.34 154.197 1137.49 156.416C1138.77 154.709 1140.05 153.045 1141.33 151.424C1142.7 149.803 1143.93 148.352 1145.04 147.072C1147.35 144.427 1149.65 142.549 1151.96 141.44C1154.34 140.245 1156.48 139.648 1158.36 139.648C1160.57 139.648 1162.37 140.288 1163.73 141.568C1165.1 142.848 1165.78 144.512 1165.78 146.56C1165.78 148.181 1165.35 149.845 1164.5 151.552C1164.24 152.235 1163.65 153.301 1162.71 154.752C1161.77 156.117 1160.74 157.611 1159.64 159.232C1158.53 160.853 1157.5 162.304 1156.56 163.584C1155.45 164.949 1154.69 166.144 1154.26 167.168C1153.83 168.107 1153.62 168.875 1153.62 169.472C1153.62 170.325 1154.09 170.752 1155.03 170.752C1156.22 170.752 1157.89 170.112 1160.02 168.832C1161.3 168.064 1162.75 167.04 1164.37 165.76C1166.08 164.395 1167.74 163.029 1169.36 161.664C1171.07 160.213 1172.44 159.019 1173.46 158.08C1173.8 157.739 1174.1 157.568 1174.36 157.568C1174.7 157.568 1174.87 157.781 1174.87 158.208C1174.87 158.72 1174.65 159.189 1174.23 159.616C1171.67 162.005 1168.68 164.608 1165.27 167.424C1161.94 170.24 1158.65 172.416 1155.41 173.952C1152.77 175.232 1150.33 175.872 1148.12 175.872C1146.24 175.872 1144.74 175.403 1143.64 174.464C1142.53 173.44 1141.97 171.989 1141.97 170.112C1141.97 168.747 1142.31 167.125 1143 165.248C1143.85 162.944 1145.04 160.64 1146.58 158.336C1148.2 156.032 1149.86 153.856 1151.57 151.808C1153.36 149.675 1154.9 147.883 1156.18 146.432C1157.29 145.237 1157.84 144.213 1157.84 143.36C1157.84 142.592 1157.33 142.208 1156.31 142.208C1155.28 142.208 1153.75 142.805 1151.7 144C1149.74 145.109 1147.52 146.944 1145.04 149.504C1141.54 153.173 1138.47 157.141 1135.83 161.408C1133.18 165.675 1130.15 169.685 1126.74 173.44C1124.86 175.573 1123.03 176.64 1121.23 176.64Z" fill="#6B7280" fill-opacity="0.85"/>
</svg>
