<svg width="1177" height="286" viewBox="0 0 1177 286" fill="none" xmlns="http://www.w3.org/2000/svg">
<path d="M136.953 0.161024C117.072 1.18909 95.5216 5.36562 76.4118 11.9517C59.3255 17.8309 39.2202 27.8546 26.8551 36.6253C16.0637 44.3037 8.32346 52.4961 4.05187 60.7207C-0.476646 69.4592 -1.24746 79.4187 1.93214 87.6432C2.95989 90.3419 7.45629 97.7954 8.9658 99.3375L9.86508 100.269L10.7644 98.8556C18.6331 86.3902 24.7674 78.7761 33.5675 70.5837C54.8933 50.6649 85.7258 35.2117 115.434 29.4931C119.963 28.6257 126.226 27.7261 131.332 27.1799C136.664 26.6338 154.232 26.6338 158.311 27.1799C173.213 29.204 184.807 34.1194 192.965 41.8942C196.145 44.9141 197.365 46.906 198.521 50.8576C199.164 53.1065 199.26 54.1346 199.26 59.2107C199.26 65.2506 198.971 67.628 197.622 72.8647C193.318 89.603 181.274 102.775 161.362 112.542C154.071 116.108 146.17 119.256 144.34 119.256C143.633 119.256 141.545 118.935 139.683 118.517C122.05 114.694 108.336 122.694 102.33 140.332C101.399 142.998 99.8574 148.878 99.8574 149.681C99.8574 150.002 100.403 150.355 101.399 150.677L102.908 151.159V152.861C102.908 154.532 102.908 154.564 104.193 155.078C105.189 155.464 106.666 155.56 110.617 155.56C115.531 155.56 117.65 155.271 124.299 153.729C124.491 153.697 125.969 156.684 127.574 160.411C136.375 180.426 145.56 198.514 153.75 211.815C166.95 233.34 178.352 246.769 189.85 254.287C207.193 265.66 224.633 262.383 243.839 244.134C254.855 233.661 260.122 222.609 258.741 212.939C258.42 210.594 258.099 210.08 257.264 210.594C256.685 210.947 256.621 210.851 256.268 208.666C255.818 205.903 255.722 205.55 255.369 205.55C255.208 205.55 253.923 206.899 252.478 208.538C246.44 215.509 240.177 220.746 234.268 223.702C226.399 227.685 219.494 227.814 212.332 224.216C200.513 218.208 187.666 202.53 173.566 176.796C168.492 167.479 156.062 141.52 156.062 140.171C156.062 139.882 156.448 139.496 156.962 139.304C161.908 137.183 175.59 130.597 180.953 127.738C206.037 114.437 220.2 102.936 228.198 89.3781C233.625 80.1576 236.355 69.6199 236.355 58.022C236.355 48.5445 234.814 41.8299 230.799 33.9909C227.523 27.5655 224.889 23.7423 220.971 19.8228C209.602 8.48195 191.038 2.05652 164.252 0.257405C159.916 -0.031739 141.867 -0.0959933 136.953 0.161024Z" fill="#E91E63"/>
<path d="M88.777 50.2151C85.1799 50.8897 80.4265 52.1748 75.4162 53.7812C69.1213 55.8052 62.9227 58.0862 62.9227 58.4075C62.9227 58.536 63.4044 59.4034 64.0146 60.303C66.2629 63.6121 66.6161 65.0578 66.584 70.4552C66.5519 75.9489 66.2307 78.2621 63.0833 94.0686C59.3577 112.927 45.3225 183.735 40.7618 206.674C38.2888 219.043 35.4946 233.275 34.499 238.319C33.5033 243.363 31.769 251.877 30.6449 257.274C27.915 270.286 27.4011 273.916 27.915 276.165C28.1719 277.322 28.6537 278.318 29.3602 279.089C29.9383 279.731 30.677 280.888 30.9661 281.627C31.7048 283.426 33.3106 284.775 35.5267 285.418C39.7341 286.639 49.7225 285.354 58.2336 282.494C61.8949 281.273 70.0527 277.9 70.5666 277.386C70.6629 277.29 70.406 275.748 70.0206 273.981C68.8643 268.969 69.1213 263.796 70.9841 253.58C71.3374 251.62 79.5594 210.208 89.2587 161.536C107.758 68.7845 107.887 68.1099 107.887 66.0216C107.887 63.6442 107.212 60.817 106.281 59.2107C105.767 58.3111 104.964 56.8011 104.514 55.8373C103.23 53.2029 101.945 51.7893 99.9216 50.7934C98.2837 49.9902 97.7056 49.8938 94.5581 49.8295C92.631 49.7974 90.0296 49.958 88.777 50.2151Z" fill="#E91E63"/>
<path d="M229.416 197.28C225.661 197.28 222.504 196.384 219.944 194.592C217.469 192.715 216.232 190.027 216.232 186.528C216.232 182.773 217.128 179.275 218.92 176.032C220.712 172.789 223.101 169.973 226.088 167.584C229.075 165.109 232.317 163.189 235.816 161.824C239.4 160.459 242.941 159.776 246.44 159.776C249.939 159.776 252.541 160.416 254.248 161.696C255.955 162.891 256.808 164.384 256.808 166.176C256.808 167.883 255.997 169.717 254.376 171.68C252.84 173.557 250.579 175.221 247.592 176.672C245.715 177.525 243.539 178.293 241.064 178.976C238.675 179.573 236.584 179.872 234.792 179.872C233.427 179.872 232.744 179.659 232.744 179.232C232.744 178.891 233.341 178.72 234.536 178.72C235.645 178.72 237.352 178.421 239.656 177.824C242.045 177.141 244.349 176.245 246.568 175.136C249.043 173.771 250.792 172.405 251.816 171.04C252.84 169.675 253.352 168.437 253.352 167.328C253.352 166.304 252.925 165.451 252.072 164.768C251.304 164.085 250.195 163.744 248.744 163.744C247.379 163.744 245.843 164.128 244.136 164.896C241.661 166.005 239.101 167.84 236.456 170.4C233.896 172.875 231.763 175.605 230.056 178.592C228.349 181.579 227.496 184.437 227.496 187.168C227.496 189.045 228.008 190.624 229.032 191.904C230.141 193.184 231.763 193.824 233.896 193.824C236.115 193.824 238.675 193.141 241.576 191.776C244.477 190.325 247.421 188.576 250.408 186.528C253.395 184.395 256.168 182.261 258.728 180.128C261.288 177.995 263.336 176.203 264.872 174.752C265.384 174.24 265.768 173.984 266.024 173.984C266.28 173.984 266.408 174.197 266.408 174.624C266.408 175.221 266.152 175.733 265.64 176.16C262.397 179.147 258.856 182.261 255.016 185.504C251.261 188.747 247.208 191.52 242.856 193.824C238.589 196.043 234.109 197.195 229.416 197.28ZM269.204 196.128C265.791 196.128 263.487 195.403 262.292 193.952C261.097 192.416 260.5 190.709 260.5 188.832C260.5 185.931 261.14 183.499 262.42 181.536C263.785 179.573 265.535 177.355 267.668 174.88C265.961 176.331 264.34 177.739 262.804 179.104C261.353 180.384 260.159 181.365 259.22 182.048C258.964 182.304 258.708 182.432 258.452 182.432C258.111 182.432 257.94 182.261 257.94 181.92C257.94 181.237 258.452 180.469 259.476 179.616C261.609 177.995 263.828 176.032 266.132 173.728C268.521 171.339 270.74 169.12 272.788 167.072C274.836 164.939 276.543 163.531 277.908 162.848C278.847 162.336 279.743 161.995 280.596 161.824C281.449 161.568 282.175 161.44 282.772 161.44C283.711 161.44 284.393 161.611 284.82 161.952C285.247 162.208 285.332 162.507 285.076 162.848C283.625 164.384 282.175 166.304 280.724 168.608C279.273 170.827 277.951 173.173 276.756 175.648C275.561 178.123 274.58 180.512 273.812 182.816C273.129 185.035 272.788 186.869 272.788 188.32C272.788 190.112 273.385 191.008 274.58 191.008C275.519 191.008 276.585 190.581 277.78 189.728C279.06 188.875 280.255 187.936 281.364 186.912C282.729 185.717 284.18 184.181 285.716 182.304C287.252 180.341 288.831 178.336 290.452 176.288C292.073 174.155 293.652 172.277 295.188 170.656C296.468 169.205 297.791 168.011 299.156 167.072C300.607 166.048 302.143 165.536 303.764 165.536C304.959 165.536 305.855 165.792 306.452 166.304C307.049 166.816 307.177 167.243 306.836 167.584C305.129 169.376 303.551 171.509 302.1 173.984C300.735 176.459 299.625 178.976 298.772 181.536C298.004 184.011 297.62 186.229 297.62 188.192C297.62 190.069 298.217 191.008 299.412 191.008C300.351 191.008 301.417 190.581 302.612 189.728C303.892 188.875 305.129 187.936 306.324 186.912C307.604 185.717 308.799 184.523 309.908 183.328C311.103 182.048 312.255 180.725 313.364 179.36C313.535 174.923 314.089 171.296 315.028 168.48C316.052 165.579 317.247 163.403 318.612 161.952C319.124 161.269 320.191 160.672 321.812 160.16C323.519 159.648 325.055 159.392 326.42 159.392C328.041 159.392 328.852 159.819 328.852 160.672C328.852 161.013 328.596 161.525 328.084 162.208C327.145 163.317 325.993 164.811 324.628 166.688C323.348 168.48 322.153 170.357 321.044 172.32C319.935 174.197 319.167 175.861 318.74 177.312C318.399 178.677 318.228 179.915 318.228 181.024C318.228 182.645 318.783 183.456 319.892 183.456C320.916 183.456 322.239 182.816 323.86 181.536C324.116 181.28 324.628 180.853 325.396 180.256C326.164 179.659 326.932 179.019 327.7 178.336C328.468 177.653 329.023 177.141 329.364 176.8C329.791 176.373 330.132 176.16 330.388 176.16C330.644 176.16 330.772 176.373 330.772 176.8C330.772 177.312 330.644 177.696 330.388 177.952C329.62 178.72 328.596 179.701 327.316 180.896C326.036 182.091 325.055 182.944 324.372 183.456C323.604 184.053 322.623 184.651 321.428 185.248C320.233 185.845 319.039 186.144 317.844 186.144C316.82 186.144 315.881 185.803 315.028 185.12C314.26 184.437 313.791 183.285 313.62 181.664C310.463 185.419 307.135 188.789 303.636 191.776C300.137 194.677 296.895 196.128 293.908 196.128C290.495 196.128 288.191 195.403 286.996 193.952C285.887 192.416 285.332 190.752 285.332 188.96C285.332 187.68 285.545 186.315 285.972 184.864C283.156 187.936 280.255 190.581 277.268 192.8C274.367 195.019 271.679 196.128 269.204 196.128ZM334.29 196.128C331.645 196.128 329.597 195.317 328.146 193.696C326.695 191.989 325.97 189.813 325.97 187.168C325.97 184.693 326.61 181.963 327.89 178.976C329.255 175.989 331.389 172.96 334.29 169.888C337.277 166.645 340.989 164.043 345.426 162.08C349.863 160.032 354.087 159.008 358.098 159.008C361.341 159.008 364.114 159.733 366.418 161.184C368.722 162.549 370.258 164.299 371.026 166.432C371.965 166.432 373.117 166.688 374.482 167.2C375.933 167.712 376.658 168.651 376.658 170.016C376.658 170.955 376.189 172.021 375.25 173.216C374.653 174.069 373.586 175.349 372.05 177.056C370.599 178.763 369.234 180.597 367.954 182.56C366.93 184.096 366.119 185.547 365.522 186.912C364.925 188.192 364.626 189.301 364.626 190.24C364.626 191.52 365.266 192.16 366.546 192.16C367.997 192.16 370.173 191.349 373.074 189.728C376.231 187.936 379.261 185.888 382.162 183.584C385.063 181.28 387.325 179.445 388.946 178.08C389.373 177.739 389.671 177.568 389.842 177.568C390.183 177.568 390.354 177.781 390.354 178.208C390.354 178.72 390.141 179.189 389.714 179.616C388.946 180.299 387.453 181.579 385.234 183.456C383.015 185.333 380.455 187.296 377.554 189.344C374.738 191.392 371.965 193.056 369.234 194.336C367.869 194.933 366.589 195.403 365.394 195.744C364.285 196 363.261 196.128 362.322 196.128C360.018 196.128 358.269 195.488 357.074 194.208C355.879 192.843 355.282 191.093 355.282 188.96C355.282 188.107 355.41 187.211 355.666 186.272C355.922 185.333 356.221 184.395 356.562 183.456L357.458 181.28C355.239 184.011 353.021 186.315 350.802 188.192C348.583 189.984 346.365 191.563 344.146 192.928C342.269 194.037 340.477 194.848 338.77 195.36C337.149 195.872 335.655 196.128 334.29 196.128ZM338.258 192.8C339.794 192.8 342.013 191.904 344.914 190.112C347.815 188.235 351.186 185.376 355.026 181.536C355.538 181.024 356.477 180.128 357.842 178.848C359.293 177.483 360.829 175.989 362.45 174.368C364.071 172.661 365.437 170.997 366.546 169.376C367.741 167.669 368.338 166.261 368.338 165.152C368.338 163.531 366.93 162.72 364.114 162.72C361.639 162.72 358.653 163.701 355.154 165.664C351.741 167.541 348.455 170.357 345.298 174.112C342.055 177.952 339.666 181.28 338.13 184.096C336.679 186.827 335.954 188.917 335.954 190.368C335.954 191.989 336.722 192.8 338.258 192.8ZM407.325 196.128C403.656 196.128 401.181 195.445 399.901 194.08C398.621 192.629 397.981 191.051 397.981 189.344C397.981 187.125 398.834 184.779 400.541 182.304C401.565 180.853 402.717 179.232 403.997 177.44C405.277 175.563 406.472 173.813 407.581 172.192C408.69 170.571 409.458 169.419 409.885 168.736C410.482 167.883 410.824 167.328 410.909 167.072C411.08 166.731 411.165 166.389 411.165 166.048C411.165 165.536 410.824 165.067 410.141 164.64C409.544 164.128 408.52 163.872 407.069 163.872C406.642 163.872 406.258 163.915 405.917 164C405.661 164 405.362 164 405.021 164C404.338 164 403.954 163.957 403.869 163.872L403.485 164.384C401.096 167.541 398.536 170.656 395.805 173.728C393.074 176.715 390.088 179.488 386.845 182.048C386.504 182.304 386.248 182.432 386.077 182.432C385.736 182.432 385.565 182.261 385.565 181.92C385.565 181.237 386.077 180.469 387.101 179.616C389.746 177.397 392.349 174.923 394.909 172.192C397.469 169.376 399.773 166.432 401.821 163.36C401.053 162.848 400.669 161.824 400.669 160.288C400.669 157.984 401.394 155.509 402.845 152.864C403.869 151.072 404.978 149.749 406.173 148.896C407.453 147.957 408.562 147.488 409.501 147.488C411.293 147.488 412.189 148.555 412.189 150.688C412.189 152.053 411.677 153.76 410.653 155.808C410.226 156.832 409.373 158.155 408.093 159.776C406.898 161.312 405.704 162.421 404.509 163.104C406.301 162.507 408.562 162.123 411.293 161.952C414.109 161.696 416.456 161.568 418.333 161.568C419.442 161.568 420.808 161.909 422.429 162.592C424.05 163.189 424.861 164.299 424.861 165.92C424.861 167.029 424.349 168.224 423.325 169.504C423.069 169.845 422.386 170.656 421.277 171.936C420.168 173.216 418.93 174.752 417.565 176.544C416.285 178.336 415.09 180.128 413.981 181.92C412.872 183.541 411.976 185.035 411.293 186.4C410.696 187.765 410.397 188.917 410.397 189.856C410.397 191.221 411.165 191.904 412.701 191.904C414.493 191.904 416.882 191.051 419.869 189.344C422.856 187.637 426.056 185.461 429.469 182.816C432.968 180.085 436.168 177.269 439.069 174.368C439.41 174.027 439.709 173.856 439.965 173.856C440.306 173.856 440.477 174.069 440.477 174.496C440.477 175.008 440.264 175.477 439.837 175.904C436.85 178.891 433.522 181.963 429.853 185.12C426.269 188.192 422.514 190.795 418.589 192.928C414.749 195.061 410.994 196.128 407.325 196.128ZM470.471 207.264C469.106 206.069 468.082 204.533 467.399 202.656C466.802 200.864 466.503 198.816 466.503 196.512C466.503 194.379 466.716 192.117 467.143 189.728C467.655 187.339 468.295 184.821 469.063 182.176C467.442 184.224 465.607 186.315 463.559 188.448C461.596 190.581 459.719 192.416 457.927 193.952C454.343 196.853 450.46 198.304 446.279 198.304C443.122 198.304 440.434 197.323 438.215 195.36C435.996 193.312 434.887 190.155 434.887 185.888C434.887 184.779 434.972 183.712 435.143 182.688C435.399 181.664 435.698 180.64 436.039 179.616C435.527 180.043 435.015 180.469 434.503 180.896C434.076 181.323 433.65 181.707 433.223 182.048C432.882 182.304 432.54 182.432 432.199 182.432C431.772 182.432 431.559 182.219 431.559 181.792C431.559 181.28 431.986 180.683 432.839 180C433.948 179.061 435.186 177.781 436.551 176.16C438.002 174.539 439.58 172.789 441.287 170.912C444.274 167.584 447.9 164.896 452.167 162.848C456.519 160.8 460.786 159.776 464.967 159.776C468.551 159.776 471.154 160.416 472.775 161.696C474.482 162.976 475.335 164.512 475.335 166.304C477.468 161.781 479.687 157.472 481.991 153.376C484.38 149.195 486.599 145.525 488.647 142.368C490.78 139.211 492.53 136.864 493.895 135.328C494.834 134.219 495.986 133.408 497.351 132.896C498.802 132.384 500.252 132.128 501.703 132.128C503.154 132.128 504.562 132.341 505.927 132.768C507.292 133.195 508.487 133.877 509.511 134.816C508.658 135.328 507.292 136.565 505.415 138.528C503.623 140.405 501.532 142.752 499.143 145.568C496.839 148.384 494.407 151.413 491.847 154.656C489.372 157.899 487.026 161.141 484.807 164.384C482.162 168.224 479.644 172.363 477.255 176.8C474.951 181.237 473.074 185.547 471.623 189.728C470.172 193.824 469.447 197.451 469.447 200.608C469.447 203.168 470.002 205.131 471.111 206.496C471.367 206.837 471.367 207.051 471.111 207.136C470.855 207.307 470.642 207.349 470.471 207.264ZM450.247 193.952C451.783 193.952 453.831 193.184 456.391 191.648C458.951 190.027 462.108 187.296 465.863 183.456C467.058 182.261 467.996 181.237 468.679 180.384C469.447 179.445 470.087 178.549 470.599 177.696C471.026 176.501 471.452 175.349 471.879 174.24C472.306 173.131 472.775 172.021 473.287 170.912C472.775 171.253 472.391 171.424 472.135 171.424C471.452 171.424 471.111 171.04 471.111 170.272C471.111 169.931 471.239 169.504 471.495 168.992C472.348 167.541 472.775 166.261 472.775 165.152C472.775 163.36 471.751 162.464 469.703 162.464C468.594 162.464 467.1 162.805 465.223 163.488C463.09 164.341 460.871 165.664 458.567 167.456C456.348 169.163 454.258 171.211 452.295 173.6C450.418 175.904 448.882 178.293 447.687 180.768C446.578 183.243 446.023 185.589 446.023 187.808C446.023 189.429 446.322 190.88 446.919 192.16C447.602 193.355 448.711 193.952 450.247 193.952ZM597.556 212.256C594.057 212.256 590.175 211.445 585.908 209.824C581.044 207.861 576.905 205.216 573.492 201.888C570.079 198.645 566.751 195.36 563.508 192.032C561.631 192.459 559.881 192.8 558.26 193.056C556.724 193.312 555.359 193.525 554.164 193.696C551.86 193.952 549.684 194.08 547.636 194.08C539.871 194.08 533.556 192.672 528.692 189.856C523.913 186.955 521.524 183.285 521.524 178.848C521.524 175.349 523.145 171.595 526.388 167.584C529.716 163.488 535.135 159.349 542.644 155.168L550.58 151.072C551.433 147.403 552.756 143.349 554.548 138.912C556.34 134.389 559.156 129.867 562.996 125.344C566.836 120.736 572.212 116.555 579.124 112.8C582.623 110.837 585.908 109.429 588.98 108.576C592.052 107.723 594.868 107.296 597.428 107.296C601.524 107.296 604.724 108.277 607.028 110.24C609.417 112.117 610.612 114.507 610.612 117.408C610.612 119.712 609.801 122.229 608.18 124.96C606.559 127.605 603.913 130.251 600.244 132.896C598.708 134.005 596.361 135.413 593.204 137.12C590.047 138.827 586.591 140.576 582.836 142.368C579.081 144.16 575.455 145.867 571.956 147.488C568.543 149.109 565.684 150.432 563.38 151.456C561.161 152.48 560.052 152.992 560.052 152.992C559.967 153.675 559.881 154.4 559.796 155.168C559.796 155.936 559.796 156.661 559.796 157.344C559.796 159.989 560.052 162.592 560.564 165.152C564.831 163.019 569.097 161.312 573.364 160.032C577.631 158.752 581.769 157.813 585.78 157.216C587.657 156.875 589.535 156.619 591.412 156.448C593.289 156.277 595.124 156.192 596.916 156.192C600.756 156.192 603.999 156.789 606.644 157.984C609.289 159.093 610.612 161.227 610.612 164.384C610.612 167.2 609.375 169.888 606.9 172.448C604.511 175.008 601.311 177.397 597.3 179.616C593.375 181.835 589.108 183.84 584.5 185.632C579.892 187.424 575.369 188.917 570.932 190.112C573.492 193.696 576.393 196.811 579.636 199.456C582.879 202.187 586.249 204.277 589.748 205.728C592.137 206.667 594.271 207.349 596.148 207.776C598.111 208.203 599.775 208.416 601.14 208.416C603.529 208.416 605.279 207.947 606.388 207.008C607.497 206.069 608.052 204.96 608.052 203.68C608.052 201.632 606.815 199.541 604.34 197.408C601.865 195.36 598.367 194.336 593.844 194.336C593.247 194.336 592.649 194.379 592.052 194.464C591.455 194.464 590.815 194.507 590.132 194.592H589.748C589.321 194.592 589.108 194.507 589.108 194.336C589.108 194.08 589.321 193.781 589.748 193.44C590.26 193.099 590.815 192.885 591.412 192.8C592.607 192.629 593.759 192.501 594.868 192.416C595.977 192.331 597.044 192.288 598.068 192.288C603.103 192.288 606.772 193.227 609.076 195.104C611.465 196.896 612.66 198.987 612.66 201.376C612.66 204.021 611.337 206.496 608.692 208.8C606.047 211.104 602.335 212.256 597.556 212.256ZM560.82 146.976C562.356 146.379 564.617 145.483 567.604 144.288C570.676 143.093 574.047 141.685 577.716 140.064C581.471 138.443 585.225 136.651 588.98 134.688C592.735 132.725 596.063 130.677 598.964 128.544C602.548 125.984 605.151 123.595 606.772 121.376C608.479 119.072 609.332 117.109 609.332 115.488C609.332 112.501 607.156 111.008 602.804 111.008C600.671 111.008 598.111 111.477 595.124 112.416C592.223 113.269 588.895 114.763 585.14 116.896C577.716 120.907 572.084 125.6 568.244 130.976C564.404 136.352 561.929 141.685 560.82 146.976ZM548.276 191.648C550.409 191.648 552.671 191.52 555.06 191.264C556.169 191.093 557.279 190.965 558.388 190.88C559.497 190.709 560.607 190.496 561.716 190.24C559.583 187.765 557.663 185.205 555.956 182.56C554.335 179.915 553.055 177.141 552.116 174.24C550.751 174.923 549.513 175.563 548.404 176.16C547.295 176.757 546.356 177.397 545.588 178.08C545.161 178.421 544.863 178.677 544.692 178.848C544.521 179.019 544.436 179.019 544.436 178.848C544.436 177.739 544.991 176.544 546.1 175.264C547.209 173.899 548.745 172.491 550.708 171.04L550.964 170.912C550.452 168.864 550.068 166.816 549.812 164.768C549.641 162.72 549.599 160.672 549.684 158.624L545.332 161.056C540.639 163.957 536.884 167.2 534.068 170.784C531.252 174.368 529.844 177.781 529.844 181.024C529.844 184.011 531.295 186.528 534.196 188.576C537.097 190.624 541.791 191.648 548.276 191.648ZM569.652 188.32C573.321 187.467 576.948 186.144 580.532 184.352C584.116 182.56 587.359 180.555 590.26 178.336C593.161 176.117 595.465 173.941 597.172 171.808C598.964 169.589 599.86 167.712 599.86 166.176C599.86 165.067 599.305 164.171 598.196 163.488C597.172 162.805 595.508 162.464 593.204 162.464C592.521 162.464 591.711 162.507 590.772 162.592C589.919 162.677 588.98 162.805 587.956 162.976C584.457 163.573 580.319 164.512 575.54 165.792C570.761 167.072 566.111 168.565 561.588 170.272C563.124 176.928 565.812 182.944 569.652 188.32ZM648.726 200.992C648.043 200.992 647.702 200.608 647.702 199.84C647.702 199.669 647.745 199.499 647.83 199.328C647.83 199.157 647.873 198.944 647.958 198.688C648.47 196.725 649.579 194.08 651.286 190.752C653.078 187.424 655.254 183.712 657.814 179.616C660.459 175.435 663.275 171.168 666.262 166.816C665.75 165.024 665.537 163.573 665.622 162.464C665.707 161.611 666.262 160.629 667.286 159.52C668.395 158.325 669.59 157.344 670.87 156.576C672.235 155.723 673.302 155.381 674.07 155.552C677.398 151.029 680.513 146.891 683.414 143.136C686.315 139.381 688.747 136.395 690.71 134.176C692.758 131.957 694.038 130.848 694.55 130.848C695.233 130.848 695.745 131.147 696.086 131.744C696.427 132.341 696.598 132.896 696.598 133.408C696.598 133.408 695.574 134.688 693.526 137.248C691.563 139.723 688.961 143.051 685.718 147.232C682.561 151.328 679.19 155.851 675.606 160.8C675.691 160.885 675.734 161.013 675.734 161.184C675.734 161.355 675.777 161.525 675.862 161.696L680.47 161.312C684.822 160.971 689.43 160.203 694.294 159.008C699.158 157.728 703.937 156.149 708.63 154.272C713.323 152.309 717.505 150.091 721.174 147.616C725.27 144.8 728.641 141.813 731.286 138.656C734.017 135.413 735.382 132.469 735.382 129.824C735.382 127.179 733.803 125.003 730.646 123.296C727.489 121.504 722.155 120.608 714.646 120.608C712.086 120.608 708.929 120.907 705.174 121.504C701.419 122.101 697.366 122.912 693.014 123.936C688.747 124.96 684.481 126.197 680.214 127.648C676.033 129.013 672.193 130.507 668.694 132.128C665.281 133.749 662.55 135.413 660.502 137.12C659.137 138.315 658.667 139.296 659.094 140.064C659.265 140.32 659.35 140.576 659.35 140.832C659.35 141.003 659.265 141.088 659.094 141.088C658.838 141.088 658.497 140.96 658.07 140.704C656.705 139.851 655.681 138.784 654.998 137.504C654.401 136.139 654.102 134.901 654.102 133.792C654.102 132.768 654.273 132.085 654.614 131.744C656.15 129.525 658.667 127.392 662.166 125.344C665.75 123.296 669.931 121.419 674.71 119.712C679.489 118.005 684.566 116.512 689.942 115.232C695.318 113.952 700.566 112.971 705.686 112.288C710.891 111.605 715.627 111.264 719.894 111.264C723.393 111.264 726.337 111.52 728.726 112.032C732.054 112.715 734.87 114.379 737.174 117.024C739.478 119.584 740.63 122.741 740.63 126.496C740.63 129.995 739.222 133.835 736.406 138.016C733.675 142.197 728.939 146.251 722.198 150.176C718.443 152.395 714.134 154.485 709.27 156.448C704.406 158.325 699.457 159.904 694.422 161.184C689.473 162.464 684.865 163.232 680.598 163.488C679.915 163.573 679.233 163.616 678.55 163.616C677.867 163.616 677.185 163.616 676.502 163.616C677.867 167.029 680.001 170.571 682.902 174.24C685.889 177.824 689.217 181.195 692.886 184.352C696.555 187.424 700.225 189.941 703.894 191.904C707.563 193.781 710.721 194.72 713.366 194.72C715.414 194.72 717.249 194.251 718.87 193.312C720.577 192.288 721.558 190.965 721.814 189.344C721.814 189.003 721.985 188.875 722.326 188.96C722.667 188.96 722.795 189.173 722.71 189.6C722.369 192.587 720.747 194.763 717.846 196.128C714.945 197.493 711.702 198.176 708.118 198.176C703.51 198.176 699.115 197.323 694.934 195.616C690.838 193.909 686.998 191.733 683.414 189.088C679.915 186.357 676.843 183.413 674.198 180.256C671.638 177.099 669.59 174.069 668.054 171.168C664.385 176.544 660.971 181.707 657.814 186.656C654.742 191.605 652.566 195.701 651.286 198.944C651.115 199.541 650.731 200.011 650.134 200.352C649.622 200.779 649.153 200.992 648.726 200.992ZM737.291 197.28C733.536 197.28 730.379 196.384 727.819 194.592C725.344 192.715 724.107 190.027 724.107 186.528C724.107 182.773 725.003 179.275 726.795 176.032C728.587 172.789 730.976 169.973 733.963 167.584C736.95 165.109 740.192 163.189 743.691 161.824C747.275 160.459 750.816 159.776 754.315 159.776C757.814 159.776 760.416 160.416 762.123 161.696C763.83 162.891 764.683 164.384 764.683 166.176C764.683 167.883 763.872 169.717 762.251 171.68C760.715 173.557 758.454 175.221 755.467 176.672C753.59 177.525 751.414 178.293 748.939 178.976C746.55 179.573 744.459 179.872 742.667 179.872C741.302 179.872 740.619 179.659 740.619 179.232C740.619 178.891 741.216 178.72 742.411 178.72C743.52 178.72 745.227 178.421 747.531 177.824C749.92 177.141 752.224 176.245 754.443 175.136C756.918 173.771 758.667 172.405 759.691 171.04C760.715 169.675 761.227 168.437 761.227 167.328C761.227 166.304 760.8 165.451 759.947 164.768C759.179 164.085 758.07 163.744 756.619 163.744C755.254 163.744 753.718 164.128 752.011 164.896C749.536 166.005 746.976 167.84 744.331 170.4C741.771 172.875 739.638 175.605 737.931 178.592C736.224 181.579 735.371 184.437 735.371 187.168C735.371 189.045 735.883 190.624 736.907 191.904C738.016 193.184 739.638 193.824 741.771 193.824C743.99 193.824 746.55 193.141 749.451 191.776C752.352 190.325 755.296 188.576 758.283 186.528C761.27 184.395 764.043 182.261 766.603 180.128C769.163 177.995 771.211 176.203 772.747 174.752C773.259 174.24 773.643 173.984 773.899 173.984C774.155 173.984 774.283 174.197 774.283 174.624C774.283 175.221 774.027 175.733 773.515 176.16C770.272 179.147 766.731 182.261 762.891 185.504C759.136 188.747 755.083 191.52 750.731 193.824C746.464 196.043 741.984 197.195 737.291 197.28ZM780.663 197.28C776.994 197.28 773.879 196.384 771.319 194.592C768.844 192.715 767.607 190.027 767.607 186.528C767.607 182.773 768.503 179.275 770.295 176.032C772.172 172.789 774.604 169.973 777.591 167.584C780.578 165.109 783.82 163.189 787.319 161.824C790.903 160.459 794.444 159.776 797.943 159.776C801.442 159.776 804.002 160.416 805.623 161.696C807.33 162.976 808.183 164.512 808.183 166.304C808.183 167.499 807.842 168.693 807.159 169.888C806.476 170.997 805.538 171.552 804.343 171.552C803.575 171.552 803.191 171.253 803.191 170.656C803.191 170.229 803.319 169.845 803.575 169.504C804.599 167.712 805.111 166.133 805.111 164.768C805.111 163.061 804.215 162.208 802.423 162.208C800.972 162.208 799.095 162.763 796.791 163.872C794.914 164.725 792.908 166.048 790.775 167.84C788.727 169.547 786.807 171.552 785.015 173.856C783.223 176.075 781.73 178.379 780.535 180.768C779.426 183.072 778.871 185.248 778.871 187.296C778.871 189.259 779.426 190.88 780.535 192.16C781.644 193.44 783.308 194.08 785.527 194.08C786.978 194.08 788.684 193.739 790.647 193.056C792.695 192.373 794.956 191.264 797.431 189.728C799.479 188.448 801.612 186.912 803.831 185.12C806.135 183.328 808.354 181.493 810.487 179.616C812.62 177.739 814.455 176.117 815.991 174.752C816.503 174.24 816.93 173.984 817.271 173.984C817.612 173.984 817.783 174.197 817.783 174.624C817.783 175.221 817.527 175.733 817.015 176.16C814.796 178.208 812.364 180.427 809.719 182.816C807.074 185.12 804.3 187.296 801.399 189.344C798.583 191.392 795.81 193.056 793.079 194.336C788.642 196.299 784.503 197.28 780.663 197.28ZM821.606 197.152C818.278 197.152 815.761 196.341 814.054 194.72C812.433 193.013 811.622 190.837 811.622 188.192C811.622 186.571 811.835 184.992 812.262 183.456C812.689 181.92 813.158 180.555 813.67 179.36C813.073 179.957 812.475 180.512 811.878 181.024C811.366 181.451 810.939 181.792 810.598 182.048C810.257 182.304 809.958 182.432 809.702 182.432C809.361 182.432 809.19 182.219 809.19 181.792C809.19 181.195 809.617 180.512 810.47 179.744C813.457 177.269 815.803 175.093 817.51 173.216C819.217 171.253 821.009 169.461 822.886 167.84C826.043 165.109 829.414 162.976 832.998 161.44C836.582 159.904 840.166 159.136 843.75 159.136C847.505 159.136 850.449 160.032 852.582 161.824C854.715 163.616 855.782 166.261 855.782 169.76C855.782 171.723 855.185 173.984 853.99 176.544C852.881 179.104 851.089 181.749 848.614 184.48C847.59 185.589 846.438 186.699 845.158 187.808C843.878 188.832 842.769 189.6 841.83 190.112C846.011 189.685 849.937 188.235 853.606 185.76C857.275 183.2 860.561 180.683 863.462 178.208C863.889 177.952 864.187 177.824 864.358 177.824C864.785 177.824 864.998 178.037 864.998 178.464C864.998 178.805 864.785 179.189 864.358 179.616C860.689 183.115 856.721 186.059 852.454 188.448C848.273 190.837 843.622 191.989 838.502 191.904C835.515 193.525 832.571 194.805 829.67 195.744C826.854 196.683 824.166 197.152 821.606 197.152ZM827.366 193.568C828.561 193.568 829.841 193.355 831.206 192.928C832.571 192.501 833.937 191.947 835.302 191.264C834.79 191.264 834.278 191.008 833.766 190.496C833.339 189.984 833.126 189.301 833.126 188.448C833.126 186.741 833.766 184.992 835.046 183.2C836.326 181.408 837.905 179.872 839.782 178.592C841.659 177.312 843.494 176.672 845.286 176.672C846.31 176.672 847.249 176.971 848.102 177.568C849.041 178.08 849.553 178.805 849.638 179.744C851.089 178.123 852.07 176.373 852.582 174.496C853.179 172.619 853.478 170.869 853.478 169.248C853.478 167.029 852.753 165.365 851.302 164.256C849.937 163.061 848.059 162.464 845.67 162.464C843.366 162.464 840.806 163.275 837.99 164.896C835.259 166.517 832.657 168.608 830.182 171.168C827.793 173.728 825.787 176.501 824.166 179.488C822.63 182.475 821.862 185.333 821.862 188.064C821.862 191.733 823.697 193.568 827.366 193.568ZM851.483 230.176C846.278 230.176 841.968 229.579 838.555 228.384C835.142 227.189 832.411 225.568 830.363 223.52C828.998 222.069 827.718 220.149 826.523 217.76C825.328 215.456 824.731 213.493 824.731 211.872C824.731 211.275 824.859 210.976 825.115 210.976C825.712 210.976 826.096 211.317 826.267 212C826.267 212.256 826.566 213.237 827.163 214.944C827.675 216.651 828.656 218.528 830.107 220.576C831.558 222.624 833.691 224.416 836.507 225.952C839.323 227.488 842.992 228.256 847.515 228.256C852.891 228.256 857.712 226.976 861.979 224.416C866.246 221.941 870.043 218.656 873.371 214.56C876.784 210.549 879.899 206.155 882.715 201.376C885.531 196.597 888.219 191.904 890.779 187.296C893.339 182.688 895.942 178.635 898.587 175.136C897.478 176.331 896.07 177.824 894.363 179.616C892.742 181.323 890.992 183.072 889.115 184.864C887.238 186.656 885.446 188.277 883.739 189.728C882.032 191.179 880.624 192.245 879.515 192.928C877.638 194.037 875.846 194.848 874.139 195.36C872.518 195.872 871.024 196.128 869.659 196.128C867.014 196.128 864.966 195.317 863.515 193.696C862.064 191.989 861.339 189.813 861.339 187.168C861.339 184.693 861.979 181.963 863.259 178.976C864.624 175.989 866.758 172.96 869.659 169.888C872.646 166.645 876.358 164.043 880.795 162.08C885.232 160.032 889.456 159.008 893.467 159.008C894.918 159.008 896.326 159.179 897.691 159.52C899.056 159.776 900.294 160.245 901.403 160.928C902.939 161.867 904.048 162.763 904.731 163.616C905.499 164.384 906.054 165.323 906.395 166.432C906.907 166.432 907.718 166.688 908.827 167.2C909.936 167.627 910.96 168.181 911.899 168.864C912.838 169.461 913.307 170.101 913.307 170.784C913.307 171.125 912.966 171.509 912.283 171.936C910.576 172.789 908.656 174.837 906.523 178.08C904.39 181.237 902 185.035 899.355 189.472C896.795 193.824 893.894 198.347 890.651 203.04C887.494 207.819 883.952 212.256 880.027 216.352C876.102 220.448 871.75 223.776 866.971 226.336C862.278 228.896 857.115 230.176 851.483 230.176ZM873.243 192.8C874.95 192.8 877.04 191.947 879.515 190.24C881.392 188.96 883.44 187.381 885.659 185.504C887.878 183.541 890.054 181.493 892.187 179.36C894.32 177.227 896.155 175.264 897.691 173.472C900.507 170.229 901.915 167.584 901.915 165.536C901.915 163.829 900.891 162.976 898.843 162.976C896.795 162.976 893.979 163.957 890.395 165.92C888.347 167.029 886.171 168.608 883.867 170.656C881.563 172.704 879.387 174.923 877.339 177.312C875.376 179.701 873.798 181.92 872.603 183.968C871.238 186.443 870.555 188.448 870.555 189.984C870.555 191.861 871.451 192.8 873.243 192.8ZM915.11 196.64C914.257 196.64 913.233 196.427 912.038 196C910.843 195.659 909.649 194.976 908.454 193.952C909.393 192.672 910.758 190.965 912.55 188.832C914.257 186.613 916.091 184.181 918.054 181.536C920.017 178.891 921.851 176.245 923.558 173.6C922.193 174.965 920.699 176.416 919.078 177.952C917.457 179.488 915.835 180.896 914.214 182.176C913.873 182.517 913.489 182.688 913.062 182.688C912.721 182.688 912.55 182.517 912.55 182.176C912.55 181.749 912.891 181.237 913.574 180.64C915.963 178.507 918.609 176.075 921.51 173.344C924.497 170.528 926.673 167.669 928.038 164.768C928.465 163.744 928.678 162.805 928.678 161.952C928.678 160.843 928.465 160.16 928.038 159.904C927.697 159.648 927.526 159.307 927.526 158.88C927.526 158.112 927.91 157.728 928.678 157.728C929.105 157.728 929.446 157.813 929.702 157.984C930.641 158.411 931.537 159.221 932.39 160.416C933.243 161.611 933.67 163.403 933.67 165.792C933.67 167.157 933.499 168.736 933.158 170.528C932.817 172.235 932.219 174.197 931.366 176.416C932.646 174.709 933.926 173.045 935.206 171.424C936.571 169.803 937.809 168.352 938.918 167.072C941.222 164.427 943.526 162.549 945.83 161.44C948.219 160.245 950.353 159.648 952.23 159.648C954.449 159.648 956.241 160.288 957.606 161.568C958.971 162.848 959.654 164.512 959.654 166.56C959.654 168.181 959.227 169.845 958.374 171.552C958.118 172.235 957.521 173.301 956.582 174.752C955.643 176.117 954.619 177.611 953.51 179.232C952.401 180.853 951.377 182.304 950.438 183.584C949.329 184.949 948.561 186.144 948.134 187.168C947.707 188.107 947.494 188.875 947.494 189.472C947.494 190.325 947.963 190.752 948.902 190.752C950.097 190.752 951.761 190.112 953.894 188.832C955.174 188.064 956.625 187.04 958.246 185.76C959.953 184.395 961.617 183.029 963.238 181.664C964.945 180.213 966.31 179.019 967.334 178.08C967.675 177.739 967.974 177.568 968.23 177.568C968.571 177.568 968.742 177.781 968.742 178.208C968.742 178.72 968.529 179.189 968.102 179.616C965.542 182.005 962.555 184.608 959.142 187.424C955.814 190.24 952.529 192.416 949.286 193.952C946.641 195.232 944.209 195.872 941.99 195.872C940.113 195.872 938.619 195.403 937.51 194.464C936.401 193.44 935.846 191.989 935.846 190.112C935.846 188.747 936.187 187.125 936.87 185.248C937.723 182.944 938.918 180.64 940.454 178.336C942.075 176.032 943.739 173.856 945.446 171.808C947.238 169.675 948.774 167.883 950.054 166.432C951.163 165.237 951.718 164.213 951.718 163.36C951.718 162.592 951.206 162.208 950.182 162.208C949.158 162.208 947.622 162.805 945.574 164C943.611 165.109 941.393 166.944 938.918 169.504C935.419 173.173 932.347 177.141 929.702 181.408C927.057 185.675 924.027 189.685 920.614 193.44C918.737 195.573 916.902 196.64 915.11 196.64ZM995.169 156.832C993.974 156.832 993.078 156.448 992.481 155.68C991.884 154.912 991.585 154.101 991.585 153.248C991.585 151.541 992.396 149.877 994.017 148.256C995.638 146.549 997.345 145.696 999.137 145.696C1000.33 145.696 1001.23 146.08 1001.83 146.848C1002.42 147.616 1002.72 148.427 1002.72 149.28C1002.72 151.072 1001.91 152.779 1000.29 154.4C998.753 156.021 997.046 156.832 995.169 156.832ZM975.585 196.128C972.086 196.128 969.697 195.403 968.417 193.952C967.222 192.416 966.625 190.709 966.625 188.832C966.625 187.296 966.881 185.845 967.393 184.48C967.905 183.029 968.332 182.005 968.673 181.408C969.185 180.555 969.868 179.573 970.721 178.464C971.66 177.355 972.684 176.16 973.793 174.88C972.086 176.331 970.465 177.739 968.929 179.104C967.478 180.469 966.284 181.493 965.345 182.176C965.089 182.432 964.833 182.56 964.577 182.56C964.236 182.56 964.065 182.347 964.065 181.92C964.065 181.237 964.534 180.555 965.473 179.872C967.692 177.995 969.825 175.947 971.873 173.728C974.006 171.509 976.012 169.461 977.889 167.584C979.766 165.621 981.43 164.256 982.881 163.488C984.417 162.635 985.654 162.08 986.593 161.824C987.532 161.568 988.3 161.44 988.897 161.44C989.836 161.44 990.518 161.611 990.945 161.952C991.372 162.208 991.457 162.507 991.201 162.848C989.75 164.299 988.3 166.176 986.849 168.48C985.484 170.699 984.204 173.045 983.009 175.52C981.814 177.995 980.833 180.341 980.065 182.56C979.382 184.779 979.041 186.656 979.041 188.192C979.041 190.325 979.894 191.392 981.601 191.392C983.222 191.392 985.313 190.667 987.873 189.216C990.518 187.68 993.249 185.76 996.065 183.456C998.966 181.152 1001.65 178.891 1004.13 176.672C1004.47 176.331 1004.77 176.16 1005.03 176.16C1005.45 176.16 1005.67 176.373 1005.67 176.8C1005.75 177.227 1005.67 177.525 1005.41 177.696C1002.59 180.341 999.393 183.115 995.809 186.016C992.31 188.832 988.769 191.221 985.185 193.184C981.686 195.147 978.486 196.128 975.585 196.128ZM1010.32 198.176C1007.59 198.176 1005.5 197.365 1004.05 195.744C1002.6 194.123 1001.88 191.861 1001.88 188.96C1001.88 186.229 1002.6 183.029 1004.05 179.36L1004.31 178.72L1002 180.896C1001.66 181.237 1001.28 181.408 1000.85 181.408C1000.42 181.408 1000.21 181.237 1000.21 180.896C1000.21 180.469 1000.51 179.957 1001.11 179.36C1003.33 177.397 1005.59 175.349 1007.89 173.216C1010.28 170.997 1012.29 168.907 1013.91 166.944C1013.31 167.2 1012.67 167.328 1011.99 167.328C1011.3 167.328 1010.79 167.157 1010.45 166.816C1009.85 166.389 1009.56 165.621 1009.56 164.512C1009.56 163.573 1009.98 162.592 1010.84 161.568C1011.77 160.544 1013.65 159.648 1016.47 158.88C1017.06 158.709 1017.66 158.581 1018.26 158.496C1018.94 158.411 1019.58 158.325 1020.18 158.24C1022.91 154.4 1025.3 150.859 1027.35 147.616C1029.4 144.288 1031.02 142.069 1032.21 140.96C1032.72 140.363 1033.62 139.851 1034.9 139.424C1036.26 138.997 1037.67 138.656 1039.12 138.4C1040.66 138.144 1041.85 138.016 1042.71 138.016C1045.52 138.016 1046.93 138.272 1046.93 138.784C1046.93 139.125 1046.29 139.936 1045.01 141.216C1042.88 143.264 1040.36 145.824 1037.46 148.896C1034.64 151.883 1031.74 155.125 1028.76 158.624C1031.23 158.965 1033.49 159.605 1035.54 160.544C1037.67 161.483 1039.21 162.677 1040.15 164.128C1040.49 164.555 1040.66 165.067 1040.66 165.664C1040.66 166.347 1040.45 166.688 1040.02 166.688C1039.68 166.688 1039.29 166.475 1038.87 166.048C1037.08 164.256 1034.09 163.36 1029.91 163.36C1029.05 163.36 1028.16 163.403 1027.22 163.488C1026.37 163.573 1025.47 163.701 1024.53 163.872C1021.63 167.627 1018.98 171.381 1016.6 175.136C1014.21 178.891 1012.5 182.389 1011.48 185.632C1010.96 187.168 1010.71 188.576 1010.71 189.856C1010.71 191.136 1011.01 192.203 1011.6 193.056C1012.2 193.824 1013.1 194.208 1014.29 194.208C1015.06 194.208 1016 193.995 1017.11 193.568C1018.73 192.971 1020.61 191.989 1022.74 190.624C1024.87 189.173 1027.01 187.552 1029.14 185.76C1031.36 183.968 1033.41 182.219 1035.28 180.512C1037.25 178.805 1038.87 177.355 1040.15 176.16C1041.43 174.965 1042.15 174.283 1042.32 174.112C1042.58 173.856 1042.79 173.728 1042.96 173.728C1043.3 173.728 1043.48 173.984 1043.48 174.496C1043.48 175.093 1043.22 175.648 1042.71 176.16C1041.85 177.013 1040.53 178.293 1038.74 180C1037.03 181.707 1035.03 183.627 1032.72 185.76C1030.5 187.808 1028.12 189.771 1025.56 191.648C1023 193.525 1020.39 195.061 1017.75 196.256C1015.19 197.536 1012.71 198.176 1010.32 198.176ZM1066.04 156.832C1064.85 156.832 1063.95 156.448 1063.36 155.68C1062.76 154.912 1062.46 154.101 1062.46 153.248C1062.46 151.541 1063.27 149.877 1064.89 148.256C1066.51 146.549 1068.22 145.696 1070.01 145.696C1071.21 145.696 1072.1 146.08 1072.7 146.848C1073.3 147.616 1073.6 148.427 1073.6 149.28C1073.6 151.072 1072.79 152.779 1071.16 154.4C1069.63 156.021 1067.92 156.832 1066.04 156.832ZM1046.46 196.128C1042.96 196.128 1040.57 195.403 1039.29 193.952C1038.1 192.416 1037.5 190.709 1037.5 188.832C1037.5 187.296 1037.76 185.845 1038.27 184.48C1038.78 183.029 1039.21 182.005 1039.55 181.408C1040.06 180.555 1040.74 179.573 1041.6 178.464C1042.53 177.355 1043.56 176.16 1044.67 174.88C1042.96 176.331 1041.34 177.739 1039.8 179.104C1038.35 180.469 1037.16 181.493 1036.22 182.176C1035.96 182.432 1035.71 182.56 1035.45 182.56C1035.11 182.56 1034.94 182.347 1034.94 181.92C1034.94 181.237 1035.41 180.555 1036.35 179.872C1038.57 177.995 1040.7 175.947 1042.75 173.728C1044.88 171.509 1046.89 169.461 1048.76 167.584C1050.64 165.621 1052.31 164.256 1053.76 163.488C1055.29 162.635 1056.53 162.08 1057.47 161.824C1058.41 161.568 1059.17 161.44 1059.77 161.44C1060.71 161.44 1061.39 161.611 1061.82 161.952C1062.25 162.208 1062.33 162.507 1062.08 162.848C1060.63 164.299 1059.17 166.176 1057.72 168.48C1056.36 170.699 1055.08 173.045 1053.88 175.52C1052.69 177.995 1051.71 180.341 1050.94 182.56C1050.26 184.779 1049.92 186.656 1049.92 188.192C1049.92 190.325 1050.77 191.392 1052.48 191.392C1054.1 191.392 1056.19 190.667 1058.75 189.216C1061.39 187.68 1064.12 185.76 1066.94 183.456C1069.84 181.152 1072.53 178.891 1075 176.672C1075.35 176.331 1075.64 176.16 1075.9 176.16C1076.33 176.16 1076.54 176.373 1076.54 176.8C1076.63 177.227 1076.54 177.525 1076.28 177.696C1073.47 180.341 1070.27 183.115 1066.68 186.016C1063.19 188.832 1059.64 191.221 1056.06 193.184C1052.56 195.147 1049.36 196.128 1046.46 196.128ZM1082.61 197.152C1079.28 197.152 1076.76 196.341 1075.05 194.72C1073.43 193.013 1072.62 190.837 1072.62 188.192C1072.62 186.571 1072.84 184.992 1073.26 183.456C1073.69 181.92 1074.16 180.555 1074.67 179.36C1074.07 179.957 1073.48 180.512 1072.88 181.024C1072.37 181.451 1071.94 181.792 1071.6 182.048C1071.26 182.304 1070.96 182.432 1070.7 182.432C1070.36 182.432 1070.19 182.219 1070.19 181.792C1070.19 181.195 1070.62 180.512 1071.47 179.744C1074.46 177.269 1076.8 175.093 1078.51 173.216C1080.22 171.253 1082.01 169.461 1083.89 167.84C1087.04 165.109 1090.41 162.976 1094 161.44C1097.58 159.904 1101.17 159.136 1104.75 159.136C1108.5 159.136 1111.45 160.032 1113.58 161.824C1115.72 163.616 1116.78 166.261 1116.78 169.76C1116.78 171.723 1116.18 173.984 1114.99 176.544C1113.88 179.104 1112.09 181.749 1109.61 184.48C1108.59 185.589 1107.44 186.699 1106.16 187.808C1104.88 188.832 1103.77 189.6 1102.83 190.112C1107.01 189.685 1110.94 188.235 1114.61 185.76C1118.28 183.2 1121.56 180.683 1124.46 178.208C1124.89 177.952 1125.19 177.824 1125.36 177.824C1125.78 177.824 1126 178.037 1126 178.464C1126 178.805 1125.78 179.189 1125.36 179.616C1121.69 183.115 1117.72 186.059 1113.45 188.448C1109.27 190.837 1104.62 191.989 1099.5 191.904C1096.52 193.525 1093.57 194.805 1090.67 195.744C1087.85 196.683 1085.17 197.152 1082.61 197.152ZM1088.37 193.568C1089.56 193.568 1090.84 193.355 1092.21 192.928C1093.57 192.501 1094.94 191.947 1096.3 191.264C1095.79 191.264 1095.28 191.008 1094.77 190.496C1094.34 189.984 1094.13 189.301 1094.13 188.448C1094.13 186.741 1094.77 184.992 1096.05 183.2C1097.33 181.408 1098.9 179.872 1100.78 178.592C1102.66 177.312 1104.49 176.672 1106.29 176.672C1107.31 176.672 1108.25 176.971 1109.1 177.568C1110.04 178.08 1110.55 178.805 1110.64 179.744C1112.09 178.123 1113.07 176.373 1113.58 174.496C1114.18 172.619 1114.48 170.869 1114.48 169.248C1114.48 167.029 1113.75 165.365 1112.3 164.256C1110.94 163.061 1109.06 162.464 1106.67 162.464C1104.37 162.464 1101.81 163.275 1098.99 164.896C1096.26 166.517 1093.66 168.608 1091.18 171.168C1088.79 173.728 1086.79 176.501 1085.17 179.488C1083.63 182.475 1082.86 185.333 1082.86 188.064C1082.86 191.733 1084.7 193.568 1088.37 193.568ZM1123.23 196.64C1122.38 196.64 1121.36 196.427 1120.16 196C1118.97 195.659 1117.77 194.976 1116.58 193.952C1117.52 192.672 1118.88 190.965 1120.67 188.832C1122.38 186.613 1124.22 184.181 1126.18 181.536C1128.14 178.891 1129.98 176.245 1131.68 173.6C1130.32 174.965 1128.82 176.416 1127.2 177.952C1125.58 179.488 1123.96 180.896 1122.34 182.176C1122 182.517 1121.61 182.688 1121.19 182.688C1120.85 182.688 1120.67 182.517 1120.67 182.176C1120.67 181.749 1121.02 181.237 1121.7 180.64C1124.09 178.507 1126.73 176.075 1129.64 173.344C1132.62 170.528 1134.8 167.669 1136.16 164.768C1136.59 163.744 1136.8 162.805 1136.8 161.952C1136.8 160.843 1136.59 160.16 1136.16 159.904C1135.82 159.648 1135.65 159.307 1135.65 158.88C1135.65 158.112 1136.04 157.728 1136.8 157.728C1137.23 157.728 1137.57 157.813 1137.83 157.984C1138.77 158.411 1139.66 159.221 1140.52 160.416C1141.37 161.611 1141.8 163.403 1141.8 165.792C1141.8 167.157 1141.62 168.736 1141.28 170.528C1140.94 172.235 1140.34 174.197 1139.49 176.416C1140.77 174.709 1142.05 173.045 1143.33 171.424C1144.7 169.803 1145.93 168.352 1147.04 167.072C1149.35 164.427 1151.65 162.549 1153.96 161.44C1156.34 160.245 1158.48 159.648 1160.36 159.648C1162.57 159.648 1164.37 160.288 1165.73 161.568C1167.1 162.848 1167.78 164.512 1167.78 166.56C1167.78 168.181 1167.35 169.845 1166.5 171.552C1166.24 172.235 1165.65 173.301 1164.71 174.752C1163.77 176.117 1162.74 177.611 1161.64 179.232C1160.53 180.853 1159.5 182.304 1158.56 183.584C1157.45 184.949 1156.69 186.144 1156.26 187.168C1155.83 188.107 1155.62 188.875 1155.62 189.472C1155.62 190.325 1156.09 190.752 1157.03 190.752C1158.22 190.752 1159.89 190.112 1162.02 188.832C1163.3 188.064 1164.75 187.04 1166.37 185.76C1168.08 184.395 1169.74 183.029 1171.36 181.664C1173.07 180.213 1174.44 179.019 1175.46 178.08C1175.8 177.739 1176.1 177.568 1176.36 177.568C1176.7 177.568 1176.87 177.781 1176.87 178.208C1176.87 178.72 1176.65 179.189 1176.23 179.616C1173.67 182.005 1170.68 184.608 1167.27 187.424C1163.94 190.24 1160.65 192.416 1157.41 193.952C1154.77 195.232 1152.33 195.872 1150.12 195.872C1148.24 195.872 1146.74 195.403 1145.64 194.464C1144.53 193.44 1143.97 191.989 1143.97 190.112C1143.97 188.747 1144.31 187.125 1145 185.248C1145.85 182.944 1147.04 180.64 1148.58 178.336C1150.2 176.032 1151.86 173.856 1153.57 171.808C1155.36 169.675 1156.9 167.883 1158.18 166.432C1159.29 165.237 1159.84 164.213 1159.84 163.36C1159.84 162.592 1159.33 162.208 1158.31 162.208C1157.28 162.208 1155.75 162.805 1153.7 164C1151.74 165.109 1149.52 166.944 1147.04 169.504C1143.54 173.173 1140.47 177.141 1137.83 181.408C1135.18 185.675 1132.15 189.685 1128.74 193.44C1126.86 195.573 1125.03 196.64 1123.23 196.64Z" fill="#6B7280" fill-opacity="0.7"/>
</svg>
