<svg xmlns="http://www.w3.org/2000/svg" width="100" height="100" viewBox="0 -0.402 300 650.716"><path fill="transparent" d="M0 0v650h120v-1c-10.829-.224-21.751-4.138-29.96-11.326-4.198-3.675-6.426-10.195-12.08-11.811-7.695-2.2-15.762 2.122-22.96 4.467-11.086 3.613-22.573 5.517-34 7.67.996-8.914 8.64-8.875 16-10.261 10.583-1.992 30.277-5.443 38.411-12.814 3.722-3.372 2.925-10.498 2.675-14.925-.483-8.542.159-16.715 2.292-25 6.275-24.373 22.739-41.217 43.622-54l1 1c-6.906 21.838-4.859 45.328-16.312 66-3.639 6.567-9.28 12.586-15.688 16.532-4.142 2.551-10.375 2.568-12 7.468 17.138-3.055 35.861-18.861 49-29.614 4.554-3.728 12.169-8.361 13.682-14.386 2.685-10.691-4.801-21.42-5.593-32-2.172-29.015 6.56-57.722 26.911-79 1.029 23.966 9.411 49.018 3.764 73-1.737 7.375-5.241 15.146-10.093 20.999-4.011 4.839-10.155 7.31-10.671 14.001 14.102-9.94 25.316-27.693 34.656-42 3.291-5.042 9.041-11.869 9.664-18 .93-9.138-5.028-15.559-8.997-23-3.816-7.154-6.16-15.116-7.899-23-5.586-25.335 1.748-45.117 8.576-69h2c5.483 23.137 19.898 43.544 20.961 68 .385 8.874-1.491 17.859-4.976 26-2.278 5.319-6.973 8.929-5.985 15h1c7.667-18.417 16.12-35.946 22.33-55 2.217-6.801 6.836-16.787 5.885-24-1.794-13.602-18.783-22.552-25.611-34-14.026-23.515-15.957-48.495-12.604-75 15.716 17.218 35.393 40.923 41.101 64 1.925 7.78 2.819 16.187.598 24-1.346 4.734-5.672 10.196-.699 14 .86-19.973 6.157-39.839 7.039-60 .291-6.63 2.631-14.554.107-21-4.782-12.214-23.109-16.589-32.107-26-17.693-18.505-24.083-43.217-26.039-68 18.801 10.856 41.958 29.823 50.96 50 2.807 6.292 4.856 13.078 5.025 20 .158 6.447-2.281 13.31 3.015 18-.889-20.704-2.785-41.579-6.611-62-1.211-6.462-1.51-16.969-5.377-22.405-6.059-8.516-24.75-7.625-34.012-12.932-21.015-12.041-32.758-33.407-40-55.663 23.95 6.55 59.749 19.501 67 46h1c-2.139-14.484-9.708-29.721-15.694-43-2.096-4.648-3.729-11.489-8.519-14.071-8.095-4.363-17.936.786-26.787-.1-20.538-2.054-45.602-19.787-52-39.829 18.887.811 42.987-.169 59 11.613 4.699 3.457 9.001 8.15 11.622 13.387 2.321 4.638 2.022 9.032 7.378 11-4.278-14.849-15.326-29.401-24.025-42-3.345-4.843-6.974-11.545-12.979-13.276-8.208-2.367-15.908 4.233-23.996 5.102-20.859 2.242-46.04-8.627-56-27.826 18.885-2.387 38.703-8.86 57-.481 9.081 4.158 14.118 18.078 23 19.481-8.6-13-24.604-33.287-39-39.86-10.772-4.919-21.478-3.933-32-11.35C74.573 40.443 66.9 30.305 61.248 19c-2.264-4.53-4.07-14.941-7.976-17.972C50.142-1.402 42.75 0 39 0H0z"></path><path fill="#cccccc" d="M54 0c4.601 22.232 19.112 43.93 40 53.677 7.491 3.495 17.236 2.317 24 6.587 14.896 9.404 26.208 25.933 38 38.736-8.57-2.463-12.336-14.608-21-19.005C117.035 70.88 94.74 76.52 76 80c7.112 20.92 37.281 29.945 57 27.826 7.195-.773 14.836-7.041 21.999-5.098 6.131 1.664 9.855 8.393 13.28 13.272 9.194 13.095 18.554 27.186 24.721 42-7.861-4.408-9.17-17.353-17.001-23.62C160.181 121.72 134.185 122.396 115 122c3.922 20.268 31.637 37.892 51 39.829 8.867.888 19.945-4.27 27.791.562 4.655 2.868 6.385 9.886 8.515 14.609 6.023 13.362 12.383 27.686 15.694 42h-1c-4.374-25.403-44.242-42.081-67-46 5.27 22.779 19.917 45.748 41 56.738 9.58 4.994 25.363 3.622 32.411 11.857 4.3 5.024 4.564 16.069 5.786 22.405 3.962 20.539 5.165 41.242 6.803 62-6.338-8.151-2.103-22.014-5.358-32-6.109-18.743-20.722-31.311-35.642-43.199-5.603-4.465-11.286-10.201-18-12.801 1.068 24.865 8.427 50.64 26.039 68.999 9.324 9.719 27.065 13.118 32.107 26.001 2.319 5.926.16 12.918-.107 19-.893 20.393-6.622 40.802-7.039 61-4.089-4.89.013-9.6 1.181-15 1.564-7.235.841-14.814-.631-22-3.631-17.732-16.028-32.932-26.68-47-4.545-6.003-8.906-13.397-14.87-18-4.997 26.818-.711 54.695 13.815 78 6.728 10.796 21.682 18.002 23.943 31 1.193 6.858-3.314 16.516-5.428 23-6.192 18.997-16.868 37.04-22.33 56h-1c-.17-5.325 3.438-8.36 5.557-13 3.12-6.831 5.074-14.483 5.404-22 1.15-26.237-12.813-49.915-20.961-74h-2c-10.229 24.933-14.092 49.562-7.116 76 3.231 12.243 17.013 26.41 15.039 39-1.026 6.541-6.998 13.587-10.59 19-9.742 14.677-20.88 28.538-33.333 41 .931-5.891 6.054-7.844 9.815-12.015 4.921-5.459 8.462-12.941 10.439-19.985 6.814-24.278-1.327-51.578-3.254-76-22.923 16.884-29.51 54.612-26.829 81 .952 9.378 7.873 19.567 5.511 29-1.532 6.118-9.092 10.747-13.682 14.565-13.839 11.513-31.454 25.38-49 30.435 2.5-4.538 7.702-4.428 12-6.88 5.489-3.132 10.397-7.867 13.895-13.12 13.663-20.52 12.416-46.907 18.105-70l-1-1c-24.256 10.452-40.339 34.613-45.195 60-1.67 8.727 3.165 26.563-3.394 33.301C67.937 621.979 47.25 625.454 37 627.55c-7.613 1.557-15.48.992-16 10.45 11.074-1.407 22.33-3.723 33-7.025 6.414-1.986 14.168-6.356 21-5.491 9.004 1.139 14.734 13.794 23 18.193 18.204 9.687 43.051 7.559 62 1.322 7.626-2.51 16.327-5.291 20-12.999-19.737-13.042-38.205-24.648-63-22.911-7.257.509-13.989 3.289-21 4.911v-1c11.138-4.662 21.535-12.247 31-19.662 4.797-3.758 9.835-10.064 16-11.34 7.953-1.647 19.875 9.281 29 10.574 22.97 3.254 63.402-14.22 72-36.572-24.729-8.366-51.211-13.019-75 1.464-8.759 5.332-14.729 13.71-23 19.536 11.63-11.63 22.353-23.739 32.116-37 5.271-7.16 9.552-17.623 16.923-22.763 8.128-5.667 21.753 1.339 31.961-1.137 23.939-5.806 52.799-35.891 55-61.1-34.392 0-66.02 15.599-80 49h-1l34-80c29.994 5.565 48.636-29.941 58.139-53 3.538-8.586 8.525-20.727 5.861-30-27.753 9.046-57.493 34.484-62 65h-1l9-70c14.74-.675 24.364-13.477 29.846-26 10.697-24.432 12.37-47.893 12.154-74-8.142 2.6-14.298 9.841-19.924 16.004C244.874 276.321 242 305.764 242 337h-1c0-14.959-.531-30.143-2.285-45-1.093-9.247-4.563-20.842-2.816-30 2.304-12.079 13.775-15.951 18.661-27 10.943-24.747 10.069-64.302-.56-89h-2c-16.415 22.852-25.874 45.351-23.91 74 .77 11.237 4.419 21.929 5.91 33h-1c-4.096-15.824-8.208-31.419-13.194-47-2.906-9.079-7.5-17.198-7.234-26.961.202-7.426 10.529-16.68 12.529-25.039 4.827-20.17-1.325-44.859-7.768-64-2.557-7.596-5.897-16.95-12.333-22-13.574 32.647-13.906 61.482-3 95h-1c-4.945-11.879-11.931-23.275-19.003-34-3.659-5.549-9.409-11.381-10.812-18-2.138-10.086 6.437-19.453 7.01-30C179.653 54.163 164.178 18.498 141 4c-7.422 23.471-1.55 55.413 9.27 77 4.472 8.922 14.1 16.537 16.73 26-7.695-8.36-14.174-17.775-22.039-26-7.704-8.056-17.819-15.426-24.358-24.424-4.449-6.122-2.982-16.465-7.708-23.576C100.537 14.404 74.63 5.63 54 0z"></path><path fill="transparent" d="M56 0v1c19.205 6.26 38.901 12.748 52.907 28 8.12 8.843 5.943 18.581 11.121 27.576 5.475 9.512 17.344 17.488 24.933 25.424 7.526 7.871 13.411 18.397 22.039 25-1.541-10.029-12.76-18.731-17.216-28C139.056 56.683 135.05 28.151 141 4c21.391 18.687 38.029 47.12 37.115 76.285-.366 11.66-9.383 20.251-6.93 31.715 1.487 6.948 7.65 13.146 11.471 19 6.748 10.337 12.14 21.371 18.344 32h1c-3.493-15.097-8.921-29.19-8.921-45 0-18.223 7.034-33.03 11.921-50 16.907 18.837 25.993 60.379 20.101 85-2.053 8.579-12.264 17.43-12.784 25.09-.706 10.401 4.415 19.306 7.489 28.91 4.852 15.162 8.103 30.989 13.194 46h1c-2.255-27.605-10-49.475.425-77 4.224-11.153 12.366-19.54 17.575-30h2c8.461 26.46 11.96 60.624.982 87-4.933 11.852-16.904 16.207-19.313 29-1.438 7.634 1.542 16.32 2.256 24 1.58 16.994 3.075 33.915 3.075 51h1c0-36.462 7.386-83.102 45-101 .072 26.185-1.726 49.542-12.59 74-5.376 12.101-15.344 24.764-29.41 26-5.867 21.45-8.536 47.508-9 70h1c5.02-21.688 21.155-40.999 39-53.561 6.597-4.644 15.651-10.512 24-10.439V0H56m146 163l5 13h1l-6-13m16 57c.453 5.736-.076 12.531 5 16l-5-16m81 128c-1.299 29.799-30.114 80.26-64 76l-18.861 46L201 504h1c18.512-31.391 43.164-49 80-49-3.72 25.186-31.495 55.157-56 61.1-8.93 2.166-21.899-4.412-28.996-.693-8.449 4.427-12.743 15.141-18.156 22.593-9.99 13.755-23.175 25.268-32.848 39 9.558-4.457 15.685-14.741 25-20.124 24.903-14.392 47.443-6.932 73-.876-11.813 20.733-46.587 39.775-71 36.568-9.675-1.271-20.464-12.075-29-10.954-7.311.961-12.463 7.386-18 11.724-9.477 7.424-19.658 13.563-30 19.662v1c9.955-1.47 18.669-5.412 29-4.961 22.661.991 35.719 14.37 55 22.961-8.557 11.889-27.944 16.71-42 17v1h162V375l-1-27m-64 58v5h1l-1-5m-.667 6.667l.334.666-.334-.666m-1 4l.334.666-.334-.666M232 421l1 1-1-1m-32 83l-3 6 3-6M80 621v1l16-7-16 6z"></path></svg>