<svg xmlns="http://www.w3.org/2000/svg" width="100" height="100" viewBox="-0.998 0 300.998 650.258"><path fill="transparent" d="M0 0v306c0 9.85-2.444 23.405.318 32.856 1.049 3.589 5.668 4.281 8.682 5.573 6.377 2.733 12.497 6.6 18 10.807C43.935 368.184 59.797 388.309 63 410h1c-.56-13.005-4.017-25.96-4.91-39-.666-9.711.822-20.911-3.248-29.981-2.59-5.769-7.863-5.495-12.842-8.498-5.474-3.302-9.717-8.265-13.25-13.521-16.438-24.445-17.77-54.873-17.75-83 37.727 15.974 45 64.885 45 100h1c0-16.254 1.223-32.855 3.155-49 .941-7.863 3.716-17.159 2.38-25-2.254-13.234-15.06-17.508-19.828-30-10.703-28.039-5.19-57.979 1.293-86h2c10.016 19.62 22.316 33.738 23.91 57 .731 10.661-.214 21.518-2.17 32-1.103 5.907-4.02 12.02-2.74 18h1c2.038-24.951 19.837-48.497 19.906-72.996.025-8.829-10.852-18.396-13.018-28.004C68.311 127.259 77.654 87.228 94 68c7.63 26.496 15.097 46.812 8.985 75-2.498 11.524-9.967 21.679-11.985 33h1c6.085-14.615 14.256-28.625 22.681-42 4.333-6.877 11.164-14.078 13.264-22 2.974-11.219-6.649-19.687-6.93-31-.744-29.882 15.596-57.286 36.985-77 5.88 22.728 2.974 50.81-7.258 72-4.756 9.849-17.951 21.507-18.742 32h1c12.717-19.229 31.614-32.59 45.593-50.424 4.74-6.048 2.984-17.296 8.196-24.576C200.242 14.207 222.674 8.84 243 1l-23-1H0z"></path><path fill="#cccccc" d="M133 108h-1c1.44-9.332 12.294-18.38 16.742-27C159.781 59.6 165.913 27.375 158 4c-24.064 15.928-38.236 50.9-36.961 79 .455 10.023 9.487 18.192 6.906 28-1.765 6.71-7.142 12.208-10.752 18-9.047 14.514-20.419 30.427-25.193 47h-1c2.973-10.319 8.892-19.406 11.525-30 6.819-27.44 2.107-52.43-8.525-78-7.039 5.832-10.666 16.41-13.14 25-5.457 18.954-11.45 41.278-6.73 61 2.085 8.71 12.669 18.123 12.645 26.004C86.699 204.618 68.098 227.81 67 253h-1c-1.09-10.535 4.176-22.275 4.91-33 1.96-28.616-7.126-51.355-23.91-74h-2c-8.661 26.619-11.908 61.429-.907 88 4.85 11.715 16.88 15.48 19.238 28 1.78 9.448-1.916 21.463-3.046 31C58.618 307.078 58 321.831 58 336h-1c0-30.41-2.75-57.582-23.145-82-5.644-6.758-13.048-15.71-21.855-18-.08 28.717 1.099 60.3 18.44 85 3.395 4.836 7.33 9.212 12.56 12.095 4.853 2.675 9.812 2.438 12.405 7.924 4.458 9.429 2.99 20.826 3.684 30.981.874 12.754 3.9 25.302 4.911 38h-1c-2.761-31.63-34.01-60.61-63-69 0 26.661 15.8 61.222 38 76.79 4.838 3.393 10.136 5.853 16 6.769 4.026.63 8.17-.631 11.25 2.629 7.515 7.954 9.594 21.731 13.094 31.812 5.14 14.805 13.333 28.374 18.656 43h-1c-13.628-32.56-45.79-47-79-47 3.418 25.258 30.295 55.1 55 61.1 9.407 2.285 23.709-4.403 31.025.359 7.595 4.944 11.341 14.441 16.605 21.541 10.255 13.834 21.189 26.819 33.37 39-7.274-5.124-12.674-12.417-20-17.56-14.014-9.838-32.161-12.9-49-11.27-5.192.502-30.182 3.695-26.766 11.848 2.757 6.581 11.01 12.057 16.766 15.764 16.008 10.312 36.504 19.59 56 16.297 8.456-1.427 18.171-11.703 26-10.081 6.067 1.256 11.208 7.461 16 11.118 10.269 7.835 21.006 15.889 33 20.884v1c-33.73-11.411-57.442-1.872-86 17 3.673 7.708 12.374 10.489 20 12.999 19.492 6.416 44.371 8.205 63-1.795 8.424-4.521 13.369-17.092 23-17.871 17.581-1.421 35.565 15.659 54 11.667-2.985-8.442-10.166-8.156-18-9.804-10.247-2.155-28.884-5.395-36.686-12.706-7.417-6.95-2.812-27.944-4.764-37.49-4.89-23.917-22.036-46.298-44.55-56l-1 1c5.748 22.217 4.388 47.954 16.951 68 3.982 6.353 9.56 11.758 16.049 15.521 4.085 2.369 8.595 2.115 11 6.479-17.817-6.067-34.717-18.606-49-30.589-4.529-3.8-12.17-8.349-13.682-14.411-2.263-9.068 4.533-19.032 5.508-28 2.897-26.64-3.338-65.104-26.826-82-1.08 25.162-9.326 50.865-3.101 76 1.781 7.193 5.603 14.364 10.427 19.985 3.646 4.249 8.746 6.143 9.674 12.015a276.164 276.164 0 01-35.05-44c-3.283-5.116-9.046-11.606-8.921-18 .214-11.001 9.523-19.913 13.107-30 6.706-18.876 7.678-39.517 3.213-59-1.655-7.219-3.534-20.063-10.349-24-6.374 23.305-19.913 44.166-20.96 69-.4 9.47 2.868 17.956 4.96 27h-1c-4.484-15.571-12.225-30.389-17.025-46-1.746-5.68-5.607-13.559-4.874-19.576 1.742-14.3 20.992-24.574 27.641-37.424 12.518-24.193 11.33-45.795 11.258-72-6.788 3.447-11.081 12.069-15.651 18-12.806 16.619-26.099 34.418-28.18 56-.886 9.2 5.88 19.763 2.831 28-5.017-19.391-7.991-40.982-8-61-.003-5.879-2.387-13.463-.066-19 5.142-12.262 21.068-15.014 30.062-24.004 18.533-18.525 27.789-45 28.004-70.996-20.645 8.739-46.205 33.518-53.25 55-3.16 9.632.684 24.222-4.75 32 0-20.224 2.4-40.061 5.753-60 1.166-6.929 1.73-18.334 6.55-23.71 7.066-7.881 22.207-6.67 31.697-11.549 20.93-10.762 36.235-33.949 41-56.741-20.962 3.609-58.49 18.878-65 41h-1c3.008-13.004 8.705-25.888 14.23-38 2.03-4.45 3.559-10.922 7.983-13.609 8.384-5.091 20.295.677 29.787-.691 21.221-3.058 41.62-20.278 50-39.7-24.939.206-72.428.607-74 35l-5 1c6.087-14.543 15.614-27.944 24.333-41 3.284-4.917 6.745-11.815 12.671-13.851 7.673-2.636 15.349 3.856 22.996 4.677 19.805 2.128 49.857-6.815 57-27.826-24.076-4.486-46.75-9.088-68 6 6.378-9.054 17.85-22.008 28-26.836 7.735-3.678 16.957-2.602 25-7.029C226.685 41.85 241.846 21.355 245 0c-20.319 5.809-45.405 14.11-58.211 32-5.115 7.145-3.455 19.368-8.277 25C164.266 73.64 142.18 87.402 133 108z"></path><path fill="transparent" d="M245 0c-5.059 21.87-18.898 42.126-39 52.68-7.561 3.97-15.44 3.257-23 6.058-9.494 3.518-23.811 18.278-28 27.262 6.721-3.329 12.54-7.722 20-9.497 15.746-3.745 32.306 1.512 48 3.497-10.003 19.282-35.044 30.078-56 27.826-8.238-.885-15.607-7.269-23.996-4.963-6.131 1.685-9.369 8.193-12.671 13.137-8.545 12.794-20.023 27.069-24.333 42l5-1c2.973-34.052 48.755-34.479 74-35-11.448 18.637-27.55 35.495-50 39.535-10.026 1.805-21.799-4.981-30.61.855-3.913 2.593-5.305 8.547-7.16 12.61-5.517 12.095-12.276 25.77-14.23 39h1c9.942-23.036 42.384-34.814 65-41-6.401 22.118-19.267 44.233-40 55.688-9.353 5.167-27.057 4.45-33.436 12.602-4.348 5.557-4.83 16.879-5.978 23.71C66.233 284.953 64 304.768 64 325c4.082-4.013 2.042-8.755 2.005-14-.05-7.093 1.404-14.512 4.308-21 9.748-21.783 31.818-39.585 51.687-52-.558 27.012-10.578 53.041-30 71.985-8.328 8.123-22.127 10.373-27.581 21.015-3.088 6.025-.45 13.574-.42 20 .096 19.781 1.619 43.153 8.001 62 2.94-5.013-.201-8.936-1.485-14-1.636-6.45-1.575-12.497-.43-19 3.43-19.501 16.35-35.69 28.03-51 4.642-6.084 8.781-13.318 14.885-18 .017 26.298 1.059 47.829-11.782 72-6.85 12.895-25.247 22.441-27.28 37-.862 6.171 2.904 14.178 4.721 20 4.929 15.792 10.998 30.745 17.341 46h1l-4.83-28L113 390c5.627 4.911 7.564 13.951 9.37 21 5.343 20.851 4.92 42.795-2.985 63-3.897 9.961-11.901 17.959-12.662 29-.438 6.359 5.313 12.934 8.586 18 9.655 14.945 21.093 33.5 35.691 44-.492-6.37-5.823-8.443-9.674-13.004-5.027-5.954-8.946-13.385-10.661-20.996-5.573-24.744 2.825-49.297 3.335-74 17.841 18.219 28.898 45.29 27.625 71-.615 12.427-9.319 28.039-6.307 39.999 1.504 5.971 9.204 10.508 13.682 14.247 13.617 11.371 31.417 25.578 49 29.754-1.571-4.739-7.038-4.607-11-7.094-7.04-4.42-13.213-10.576-17.201-17.906-11.046-20.298-8.606-43.753-15.799-65l1-1c21.261 13.015 38.01 30.048 44.102 55 2.403 9.843-2.37 31.032 4.487 38.49 13.034 14.177 46.667 5.135 55.411 22.51-18.837 2.092-37.198-13.912-54.999-11.706-7.989.99-10.332 8.509-16.016 13.238-8.039 6.69-18.599 10.254-28.985 10.468v1h121V0h-55m-91 86l-11 13c5.513-.871 10.72-7.427 11-13M82.333 214.667l.334.666-.334-.666M81 217l-5 19c4.859-2.98 6.637-13.674 5-19z"></path><path fill="transparent" d="M63 325l1 1-1-1M0 353v297h161v-1c-14.056-.29-33.443-5.111-42-17 8.457-3.768 15.534-10.615 24-14.741 21.955-10.699 39.519-7.587 62-2.259v-1c-11.103-6.487-21.752-13.065-32-20.884-5.533-4.222-10.797-10.556-18-11.502-8.336-1.095-18.711 9.389-28 10.795-22.07 3.341-55.009-12.809-67.842-30.423-7.194-9.874 20.485-13.459 26.842-13.897 16.002-1.101 32.709 2.02 46 11.351 7.396 5.192 12.834 13.752 21 17.56-9.639-13.684-22.519-25.459-32.626-39-5.38-7.209-9.373-17.5-17.389-22.154-7.515-4.364-20.614 2.53-29.985.254-25.51-6.195-50.728-35.883-56-61.1 35.687 0 60.923 16.353 79 47h1c-4.18-18.272-15.965-37.088-22.414-55-2.47-6.86-3.815-16.704-10.1-21.357-3.361-2.488-10.299-.925-14.486-2.216-8.083-2.492-15.215-8.142-20.71-14.428C14.24 391.785 10.294 372.222 0 353m64 58v3h1l-1-3m1 4v4h1l-1-4m1.333 5.667l.334.666-.334-.666M97 486l6 13c1.186-5.368-2.388-9.27-6-13zm0 16l6 9-6-9m54 63l1 1-1-1m54 50v1l14 6v-1l-14-6z"></path></svg>