<svg xmlns="http://www.w3.org/2000/svg" xmlns:xlink="http://www.w3.org/1999/xlink" width="1024" zoomAndPan="magnify" viewBox="0 0 768 576" height="768" preserveAspectRatio="xMidYMid meet" version="1.2"><defs><clipPath id="9f887478c1"><path d="M 219.238281 215 L 526.738281 215 L 526.738281 370 L 219.238281 370 Z M 219.238281 215 "/></clipPath><clipPath id="c116c9f6c1"><path d="M 314 191.488281 L 378 191.488281 L 378 201 L 314 201 Z M 314 191.488281 "/></clipPath><clipPath id="f378af9e38"><path d="M 232 375 L 296 375 L 296 384.238281 L 232 384.238281 Z M 232 375 "/></clipPath></defs><g id="4b6b7e50ef"><g clip-rule="nonzero" clip-path="url(#9f887478c1)"><path style=" stroke:none;fill-rule:nonzero;fill:#545454;fill-opacity:1;" d="M 224.917969 369.96875 L 219.277344 357.980469 L 255.75 340.90625 C 262.542969 337.726562 265.472656 329.625 262.289062 322.847656 C 259.246094 316.378906 258.917969 309.101562 261.367188 302.347656 C 263.8125 295.589844 268.726562 290.203125 275.207031 287.171875 L 275.585938 287 C 281.972656 284.128906 289.117188 283.859375 295.753906 286.25 C 302.523438 288.691406 307.925781 293.59375 310.96875 300.0625 L 326.898438 333.9375 C 330.085938 340.714844 338.207031 343.640625 345.003906 340.460938 C 348.273438 338.929688 350.757812 336.199219 352 332.773438 C 353.242188 329.351562 353.078125 325.664062 351.542969 322.402344 L 323.207031 262.148438 C 320.164062 255.679688 319.835938 248.402344 322.28125 241.648438 C 324.71875 234.921875 329.605469 229.546875 336.046875 226.507812 L 336.101562 226.480469 C 336.101562 226.480469 336.117188 226.476562 336.128906 226.46875 C 342.609375 223.433594 349.90625 223.109375 356.675781 225.546875 C 363.445312 227.988281 368.847656 232.890625 371.886719 239.359375 L 390.078125 278.027344 C 393.261719 284.796875 401.363281 287.722656 408.148438 284.566406 L 408.175781 284.550781 C 411.445312 283.023438 413.933594 280.289062 415.175781 276.867188 C 416.414062 273.441406 416.253906 269.757812 414.71875 266.496094 L 408.9375 254.203125 C 402.652344 240.839844 408.414062 224.871094 421.777344 218.5625 L 421.855469 218.527344 C 435.273438 212.246094 451.316406 218.027344 457.617188 231.414062 C 459.148438 234.679688 461.886719 237.15625 465.320312 238.394531 C 468.753906 239.632812 472.445312 239.472656 475.714844 237.941406 C 475.714844 237.941406 521.078125 216.710938 521.078125 216.710938 L 526.714844 228.699219 L 481.355469 249.933594 C 474.875 252.964844 467.578125 253.292969 460.804688 250.851562 C 454.039062 248.414062 448.636719 243.507812 445.59375 237.042969 C 442.40625 230.261719 434.285156 227.335938 427.492188 230.519531 C 420.695312 233.695312 417.765625 241.800781 420.953125 248.578125 L 426.734375 260.871094 C 429.773438 267.335938 430.105469 274.613281 427.65625 281.371094 C 425.222656 288.09375 420.335938 293.46875 413.894531 296.507812 L 413.828125 296.539062 C 413.828125 296.539062 413.820312 296.542969 413.8125 296.546875 C 410.132812 298.265625 406.253906 299.085938 402.433594 299.085938 C 392.324219 299.085938 382.621094 293.375 378.050781 283.65625 L 359.863281 244.988281 C 358.328125 241.726562 355.589844 239.246094 352.160156 238.007812 C 348.722656 236.769531 345.03125 236.933594 341.761719 238.460938 C 338.492188 239.992188 336.007812 242.722656 334.765625 246.148438 C 333.523438 249.570312 333.6875 253.257812 335.222656 256.519531 L 363.5625 316.773438 C 366.605469 323.242188 366.933594 330.519531 364.484375 337.269531 C 362.050781 343.996094 357.164062 349.371094 350.722656 352.410156 L 350.671875 352.433594 C 350.671875 352.433594 350.652344 352.441406 350.640625 352.445312 C 346.960938 354.167969 343.082031 354.984375 339.265625 354.984375 C 329.152344 354.984375 319.453125 349.277344 314.882812 339.558594 L 298.953125 305.683594 C 297.417969 302.421875 294.679688 299.941406 291.25 298.703125 C 287.8125 297.464844 284.121094 297.628906 280.851562 299.15625 L 280.804688 299.179688 C 274.050781 302.375 271.136719 310.441406 274.308594 317.199219 L 274.316406 317.21875 C 280.613281 330.605469 274.816406 346.609375 261.398438 352.894531 L 224.925781 369.964844 Z M 224.917969 369.96875 "/></g><path style=" stroke:none;fill-rule:nonzero;fill:#ededed;fill-opacity:1;" d="M 222.308594 364.421875 L 221.882812 363.523438 L 224.886719 362.117188 L 225.308594 363.011719 L 222.304688 364.421875 Z M 228.320312 361.609375 L 227.898438 360.707031 L 230.902344 359.300781 L 231.324219 360.203125 Z M 234.328125 358.796875 L 233.90625 357.898438 L 236.910156 356.492188 L 237.332031 357.394531 L 234.328125 358.800781 Z M 240.339844 355.984375 L 239.917969 355.082031 L 242.921875 353.675781 L 243.34375 354.574219 Z M 246.347656 353.171875 L 245.925781 352.269531 L 248.929688 350.863281 L 249.355469 351.765625 L 246.351562 353.171875 Z M 252.355469 350.355469 L 251.933594 349.457031 L 254.9375 348.050781 L 255.359375 348.949219 Z M 338.96875 348.851562 C 337.839844 348.832031 336.703125 348.722656 335.589844 348.523438 L 335.765625 347.546875 C 336.828125 347.738281 337.910156 347.839844 338.984375 347.855469 L 338.972656 348.851562 Z M 342.355469 348.621094 L 342.207031 347.636719 C 343.269531 347.480469 344.328125 347.226562 345.355469 346.894531 L 345.664062 347.835938 C 344.585938 348.1875 343.476562 348.449219 342.355469 348.617188 Z M 332.304688 347.65625 C 331.238281 347.277344 330.195312 346.8125 329.203125 346.269531 L 329.683594 345.398438 C 330.628906 345.917969 331.621094 346.359375 332.636719 346.722656 L 332.304688 347.660156 Z M 258.367188 347.546875 L 257.945312 346.644531 L 258.363281 346.453125 C 259.203125 346.058594 260.023438 345.601562 260.796875 345.09375 L 261.34375 345.925781 C 260.527344 346.457031 259.667969 346.9375 258.78125 347.351562 L 258.367188 347.542969 Z M 348.792969 346.527344 L 348.335938 345.648438 C 349.289062 345.152344 350.214844 344.574219 351.074219 343.929688 L 351.671875 344.722656 C 350.769531 345.398438 349.800781 346.007812 348.792969 346.527344 Z M 326.371094 344.398438 C 325.480469 343.703125 324.644531 342.925781 323.882812 342.09375 L 324.617188 341.425781 C 325.339844 342.21875 326.140625 342.957031 326.984375 343.621094 L 326.371094 344.402344 Z M 264.015625 343.839844 L 263.339844 343.113281 C 264.128906 342.382812 264.863281 341.585938 265.523438 340.734375 L 266.3125 341.34375 C 265.617188 342.238281 264.84375 343.078125 264.015625 343.839844 Z M 354.207031 342.46875 L 353.488281 341.785156 C 354.226562 341.003906 354.910156 340.160156 355.515625 339.269531 L 356.335938 339.828125 C 355.699219 340.761719 354.984375 341.648438 354.207031 342.464844 Z M 321.804688 339.410156 C 321.296875 338.628906 320.839844 337.804688 320.441406 336.957031 L 320.199219 336.441406 L 321.101562 336.019531 L 321.34375 336.535156 C 321.722656 337.339844 322.160156 338.125 322.640625 338.871094 Z M 268.167969 338.503906 L 267.292969 338.027344 C 267.804688 337.085938 268.246094 336.09375 268.601562 335.074219 L 269.539062 335.402344 C 269.167969 336.46875 268.707031 337.511719 268.167969 338.503906 Z M 358.015625 336.882812 L 357.109375 336.464844 C 357.5625 335.492188 357.941406 334.472656 358.230469 333.441406 L 359.1875 333.707031 C 358.882812 334.792969 358.488281 335.863281 358.015625 336.886719 Z M 318.789062 333.441406 L 317.375 330.445312 L 318.28125 330.027344 L 319.691406 333.023438 L 318.789062 333.445312 Z M 270.394531 332.125 L 269.410156 331.953125 C 269.597656 330.894531 269.695312 329.808594 269.707031 328.742188 L 270.703125 328.75 C 270.691406 329.875 270.589844 331.011719 270.394531 332.125 Z M 359.832031 330.375 L 358.84375 330.265625 C 358.921875 329.550781 358.964844 328.824219 358.964844 328.109375 C 358.964844 327.753906 358.953125 327.394531 358.933594 327.042969 L 359.929688 326.988281 C 359.949219 327.359375 359.957031 327.734375 359.957031 328.109375 C 359.957031 328.859375 359.914062 329.625 359.832031 330.375 Z M 315.964844 327.449219 L 314.554688 324.453125 L 315.457031 324.03125 L 316.867188 327.027344 Z M 269.472656 325.523438 C 269.304688 324.460938 269.046875 323.410156 268.707031 322.390625 L 269.652344 322.074219 C 270.011719 323.148438 270.28125 324.253906 270.457031 325.371094 Z M 358.492188 323.851562 C 358.257812 322.804688 357.933594 321.765625 357.527344 320.769531 L 358.453125 320.394531 C 358.875 321.441406 359.21875 322.53125 359.464844 323.632812 L 358.492188 323.847656 Z M 313.148438 321.453125 L 311.738281 318.457031 L 312.640625 318.035156 L 314.050781 321.03125 Z M 267.457031 319.363281 C 267.019531 318.316406 266.671875 317.230469 266.421875 316.136719 L 267.390625 315.910156 C 267.632812 316.953125 267.964844 317.984375 268.375 318.984375 Z M 356.15625 317.785156 L 354.746094 314.785156 L 355.648438 314.367188 L 357.058594 317.363281 Z M 310.328125 315.457031 L 308.917969 312.460938 L 309.820312 312.039062 L 311.230469 315.035156 Z M 265.933594 312.78125 C 265.90625 312.363281 265.894531 311.9375 265.894531 311.511719 C 265.894531 310.808594 265.929688 310.089844 266.003906 309.390625 L 266.992188 309.492188 C 266.921875 310.160156 266.886719 310.839844 266.886719 311.511719 C 266.886719 311.914062 266.902344 312.320312 266.925781 312.71875 Z M 353.332031 311.789062 L 351.921875 308.792969 L 352.824219 308.375 L 354.238281 311.371094 Z M 307.507812 309.460938 L 306.097656 306.464844 L 307 306.046875 L 308.410156 309.042969 Z M 267.585938 306.320312 L 266.625 306.058594 C 266.921875 304.972656 267.308594 303.898438 267.777344 302.875 L 268.683594 303.285156 C 268.238281 304.265625 267.867188 305.285156 267.585938 306.320312 Z M 350.515625 305.792969 L 349.105469 302.796875 L 350.007812 302.375 L 351.417969 305.375 Z M 304.6875 303.464844 L 304.507812 303.085938 C 304.105469 302.234375 303.644531 301.410156 303.128906 300.628906 L 303.964844 300.082031 C 304.503906 300.898438 304.988281 301.765625 305.410156 302.660156 L 305.589844 303.042969 L 304.6875 303.460938 Z M 270.253906 300.464844 L 269.425781 299.914062 C 270.058594 298.972656 270.769531 298.082031 271.539062 297.261719 L 272.265625 297.9375 C 271.53125 298.722656 270.855469 299.570312 270.253906 300.464844 Z M 347.695312 299.796875 L 346.285156 296.800781 L 347.1875 296.378906 L 348.597656 299.375 Z M 301.136719 298.089844 C 300.40625 297.304688 299.601562 296.570312 298.75 295.914062 L 299.359375 295.128906 C 300.257812 295.820312 301.097656 296.589844 301.867188 297.414062 Z M 274.664062 295.777344 L 274.0625 294.988281 C 274.957031 294.308594 275.921875 293.691406 276.921875 293.160156 L 277.386719 294.039062 C 276.433594 294.542969 275.519531 295.128906 274.660156 295.777344 Z M 296.039062 294.15625 C 295.09375 293.644531 294.097656 293.207031 293.082031 292.855469 L 293.40625 291.917969 C 294.472656 292.289062 295.519531 292.746094 296.515625 293.285156 Z M 344.875 293.804688 L 343.464844 290.808594 L 344.367188 290.386719 L 345.777344 293.382812 Z M 402.453125 292.949219 C 401.992188 292.949219 401.527344 292.933594 401.074219 292.902344 L 401.140625 291.914062 C 402.210938 291.984375 403.308594 291.964844 404.375 291.863281 L 404.46875 292.851562 C 403.800781 292.917969 403.125 292.953125 402.453125 292.953125 Z M 280.359375 292.769531 L 280.046875 291.828125 C 281.117188 291.46875 282.230469 291.199219 283.34375 291.023438 L 283.5 292.003906 C 282.4375 292.171875 281.382812 292.429688 280.359375 292.769531 Z M 397.710938 292.402344 C 396.613281 292.148438 395.523438 291.800781 394.480469 291.371094 L 394.855469 290.453125 C 395.851562 290.863281 396.886719 291.195312 397.9375 291.4375 Z M 407.8125 292.242188 L 407.554688 291.28125 C 408.589844 291.003906 409.613281 290.632812 410.59375 290.183594 L 411.007812 291.089844 C 409.976562 291.558594 408.902344 291.945312 407.8125 292.238281 Z M 289.945312 292.050781 C 288.882812 291.871094 287.800781 291.769531 286.722656 291.765625 L 286.730469 290.769531 C 287.859375 290.78125 288.996094 290.878906 290.113281 291.074219 L 289.945312 292.054688 Z M 391.453125 289.828125 C 390.492188 289.234375 389.574219 288.558594 388.71875 287.816406 L 389.375 287.066406 C 390.183594 287.773438 391.058594 288.414062 391.976562 288.980469 Z M 413.96875 289.4375 L 413.410156 288.613281 C 414.304688 288.011719 415.152344 287.332031 415.933594 286.59375 L 416.617188 287.316406 C 415.796875 288.089844 414.90625 288.808594 413.964844 289.4375 Z M 342.054688 287.808594 L 340.644531 284.808594 L 341.546875 284.390625 L 342.957031 287.386719 Z M 386.351562 285.386719 C 385.636719 284.515625 384.984375 283.578125 384.417969 282.597656 L 385.28125 282.101562 C 385.820312 283.035156 386.441406 283.925781 387.121094 284.753906 Z M 418.886719 284.789062 L 418.09375 284.191406 C 418.746094 283.335938 419.328125 282.417969 419.832031 281.46875 L 420.710938 281.933594 C 420.183594 282.933594 419.570312 283.894531 418.886719 284.792969 Z M 339.234375 281.8125 L 337.824219 278.816406 L 338.726562 278.394531 L 340.136719 281.394531 Z M 382.925781 279.59375 L 381.515625 276.597656 L 382.417969 276.175781 L 383.828125 279.175781 Z M 422.042969 278.816406 L 421.097656 278.503906 C 421.441406 277.480469 421.703125 276.429688 421.871094 275.371094 L 422.855469 275.527344 C 422.675781 276.640625 422.398438 277.746094 422.042969 278.816406 Z M 336.414062 275.816406 L 335.003906 272.820312 L 335.90625 272.398438 L 337.320312 275.394531 Z M 380.105469 273.601562 L 378.695312 270.605469 L 379.597656 270.183594 L 381.007812 273.179688 Z M 422.132812 272.152344 C 422.132812 271.074219 422.035156 269.996094 421.855469 268.9375 L 422.839844 268.769531 C 423.027344 269.882812 423.125 271.019531 423.125 272.148438 L 422.132812 272.148438 Z M 333.59375 269.824219 L 332.183594 266.828125 L 333.082031 266.40625 L 334.492188 269.402344 L 333.589844 269.828125 Z M 377.285156 267.605469 L 375.875 264.609375 L 376.777344 264.1875 L 378.1875 267.183594 Z M 421.054688 265.8125 C 420.828125 265.164062 420.566406 264.515625 420.273438 263.894531 L 419.769531 262.820312 L 420.671875 262.398438 L 421.175781 263.472656 C 421.484375 264.128906 421.757812 264.804688 422 265.488281 L 421.058594 265.8125 Z M 330.777344 263.828125 L 329.367188 260.828125 L 330.269531 260.40625 L 331.679688 263.402344 L 330.78125 263.828125 Z M 374.464844 261.609375 L 373.054688 258.613281 L 373.953125 258.191406 L 375.363281 261.1875 L 374.460938 261.609375 Z M 418.355469 259.824219 L 416.945312 256.828125 L 417.847656 256.40625 L 419.257812 259.402344 L 418.355469 259.828125 Z M 328.019531 257.753906 C 327.632812 256.691406 327.335938 255.589844 327.136719 254.480469 L 328.113281 254.300781 C 328.308594 255.351562 328.589844 256.402344 328.953125 257.414062 Z M 371.644531 255.613281 L 370.234375 252.617188 L 371.136719 252.195312 L 372.546875 255.195312 Z M 415.535156 253.828125 L 414.488281 251.601562 C 414.363281 251.335938 414.246094 251.066406 414.136719 250.800781 L 415.054688 250.414062 C 415.160156 250.671875 415.273438 250.925781 415.394531 251.175781 L 416.4375 253.402344 L 415.535156 253.824219 Z M 326.808594 251.105469 C 326.808594 251.007812 326.808594 250.910156 326.808594 250.808594 C 326.808594 249.785156 326.890625 248.742188 327.042969 247.722656 L 328.027344 247.871094 C 327.882812 248.847656 327.804688 249.832031 327.804688 250.8125 C 327.804688 250.90625 327.804688 251 327.804688 251.089844 Z M 368.824219 249.621094 L 367.414062 246.625 L 368.316406 246.203125 L 369.726562 249.199219 Z M 413.082031 247.578125 C 412.824219 246.480469 412.65625 245.351562 412.578125 244.226562 L 413.570312 244.160156 C 413.640625 245.234375 413.804688 246.304688 414.046875 247.347656 L 413.078125 247.578125 Z M 469.992188 246.335938 C 469.066406 246.335938 468.132812 246.273438 467.210938 246.152344 L 467.34375 245.167969 C 468.414062 245.308594 469.496094 245.367188 470.574219 245.335938 L 470.605469 246.328125 C 470.398438 246.335938 470.191406 246.339844 469.992188 246.339844 Z M 473.980469 245.945312 L 473.789062 244.972656 C 474.84375 244.761719 475.890625 244.464844 476.898438 244.085938 L 477.25 245.019531 C 476.191406 245.414062 475.089844 245.730469 473.984375 245.949219 Z M 463.898438 245.425781 C 462.816406 245.097656 461.753906 244.675781 460.738281 244.175781 L 461.179688 243.285156 C 462.148438 243.761719 463.160156 244.160156 464.1875 244.476562 Z M 328.761719 244.730469 L 327.8125 244.425781 C 328.15625 243.351562 328.597656 242.300781 329.109375 241.296875 L 329.996094 241.75 C 329.503906 242.707031 329.089844 243.710938 328.757812 244.730469 Z M 480.3125 243.652344 L 479.886719 242.75 L 482.890625 241.34375 L 483.3125 242.238281 L 480.308594 243.648438 Z M 366.007812 243.625 L 365.421875 242.382812 C 365.152344 241.8125 364.859375 241.25 364.535156 240.710938 L 365.390625 240.203125 C 365.730469 240.769531 366.042969 241.363281 366.324219 241.960938 L 366.910156 243.203125 Z M 457.824219 242.4375 C 456.902344 241.78125 456.03125 241.042969 455.234375 240.246094 L 455.9375 239.542969 C 456.695312 240.304688 457.527344 241.003906 458.402344 241.628906 Z M 413.628906 240.933594 L 412.632812 240.839844 C 412.746094 239.71875 412.949219 238.597656 413.242188 237.503906 L 414.203125 237.761719 C 413.925781 238.800781 413.734375 239.867188 413.628906 240.933594 Z M 486.324219 240.839844 L 485.902344 239.9375 L 488.90625 238.53125 L 489.328125 239.433594 Z M 331.703125 239.007812 L 330.902344 238.417969 C 331.578125 237.507812 332.328125 236.652344 333.136719 235.871094 L 333.832031 236.582031 C 333.058594 237.324219 332.34375 238.144531 331.703125 239.007812 Z M 362.664062 238.082031 C 361.972656 237.261719 361.207031 236.492188 360.382812 235.796875 L 361.03125 235.042969 C 361.894531 235.773438 362.699219 236.582031 363.425781 237.441406 L 362.667969 238.082031 Z M 492.335938 238.023438 L 491.914062 237.128906 L 494.917969 235.71875 L 495.339844 236.621094 L 492.335938 238.027344 Z M 453.035156 237.660156 C 452.382812 236.746094 451.796875 235.765625 451.296875 234.75 L 452.191406 234.3125 C 452.667969 235.28125 453.226562 236.214844 453.847656 237.085938 Z M 498.34375 235.214844 L 497.917969 234.3125 L 500.921875 232.90625 L 501.347656 233.804688 Z M 415.289062 234.71875 L 414.378906 234.3125 C 414.84375 233.28125 415.394531 232.285156 416.019531 231.347656 L 416.851562 231.894531 C 416.257812 232.789062 415.730469 233.738281 415.289062 234.71875 Z M 336.328125 234.535156 L 335.761719 233.71875 C 336.6875 233.078125 337.679688 232.511719 338.707031 232.027344 L 339.132812 232.925781 C 338.15625 233.386719 337.210938 233.925781 336.328125 234.53125 Z M 357.757812 233.914062 C 356.835938 233.359375 355.859375 232.875 354.859375 232.476562 L 355.230469 231.554688 C 356.277344 231.972656 357.304688 232.476562 358.269531 233.0625 L 357.753906 233.914062 Z M 504.355469 232.398438 L 503.933594 231.5 L 506.9375 230.089844 L 507.359375 230.992188 Z M 449.726562 231.914062 C 449.132812 231.019531 448.457031 230.167969 447.722656 229.382812 L 448.449219 228.703125 C 449.222656 229.527344 449.929688 230.421875 450.558594 231.363281 Z M 342.160156 231.796875 L 341.890625 230.839844 C 342.976562 230.53125 344.101562 230.3125 345.226562 230.191406 L 345.335938 231.175781 C 344.265625 231.296875 343.195312 231.5 342.160156 231.796875 Z M 351.769531 231.527344 C 350.71875 231.296875 349.640625 231.148438 348.566406 231.085938 L 348.621094 230.09375 C 349.75 230.15625 350.882812 230.3125 351.984375 230.554688 L 351.769531 231.523438 Z M 510.363281 229.585938 L 509.9375 228.6875 L 512.941406 227.28125 L 513.363281 228.179688 L 510.359375 229.585938 Z M 418.847656 229.359375 L 418.117188 228.683594 C 418.886719 227.855469 419.734375 227.085938 420.628906 226.402344 L 421.234375 227.191406 C 420.382812 227.847656 419.578125 228.574219 418.84375 229.363281 Z M 445.324219 227.21875 C 444.472656 226.566406 443.554688 225.980469 442.605469 225.476562 L 443.074219 224.597656 C 444.074219 225.128906 445.035156 225.746094 445.929688 226.433594 Z M 516.375 226.773438 L 515.953125 225.871094 L 518.957031 224.464844 L 519.378906 225.367188 Z M 423.953125 225.4375 L 423.480469 224.566406 C 423.800781 224.394531 424.128906 224.230469 424.453125 224.078125 L 424.558594 224.03125 C 425.222656 223.722656 425.910156 223.453125 426.597656 223.214844 L 426.917969 224.15625 C 426.226562 224.390625 425.539062 224.667969 424.878906 224.976562 L 424.78125 225.023438 C 424.5 225.15625 424.222656 225.296875 423.953125 225.441406 Z M 439.640625 224.1875 C 438.621094 223.839844 437.566406 223.574219 436.503906 223.394531 L 436.667969 222.414062 C 437.785156 222.605469 438.890625 222.882812 439.960938 223.246094 Z M 522.382812 223.957031 L 521.960938 223.058594 L 523.683594 222.25 L 524.105469 223.152344 Z M 430.058594 223.371094 L 429.898438 222.390625 C 430.988281 222.214844 432.101562 222.125 433.214844 222.125 L 433.285156 222.125 L 433.285156 223.117188 L 433.214844 223.117188 C 432.160156 223.117188 431.097656 223.203125 430.0625 223.371094 Z M 430.058594 223.371094 "/><g clip-rule="nonzero" clip-path="url(#c116c9f6c1)"><path style=" stroke:none;fill-rule:evenodd;fill:#fb6a31;fill-opacity:1;" d="M 377.746094 200.042969 L 377.746094 196.105469 C 377.746094 193.558594 375.671875 191.488281 373.121094 191.488281 L 319.460938 191.488281 C 316.910156 191.488281 314.835938 193.558594 314.835938 196.105469 L 314.835938 200.042969 Z M 377.746094 200.042969 "/></g><path style=" stroke:none;fill-rule:evenodd;fill:#ededed;fill-opacity:1;" d="M 373.121094 193.144531 L 319.460938 193.144531 C 317.820312 193.144531 316.492188 194.46875 316.492188 196.105469 L 316.492188 210.910156 C 316.492188 212.542969 317.820312 213.867188 319.460938 213.867188 L 338.960938 213.867188 C 339.425781 213.867188 339.875 214.039062 340.222656 214.347656 L 344.90625 218.476562 C 345.617188 219.105469 346.675781 219.113281 347.398438 218.5 L 352.332031 214.320312 C 352.675781 214.027344 353.113281 213.867188 353.5625 213.867188 L 373.121094 213.867188 C 374.757812 213.867188 376.085938 212.542969 376.085938 210.910156 L 376.085938 196.105469 C 376.085938 194.46875 374.757812 193.144531 373.121094 193.144531 Z M 373.121094 193.144531 "/><path style=" stroke:none;fill-rule:evenodd;fill:#ededed;fill-opacity:1;" d="M 346.289062 235.179688 C 342.789062 235.179688 339.941406 232.339844 339.941406 228.847656 C 339.941406 225.351562 342.789062 222.511719 346.289062 222.511719 C 349.792969 222.511719 352.640625 225.351562 352.640625 228.847656 C 352.640625 232.339844 349.792969 235.179688 346.289062 235.179688 Z M 346.289062 235.179688 "/><path style=" stroke:none;fill-rule:evenodd;fill:#fb6a31;fill-opacity:1;" d="M 346.289062 233.523438 C 343.703125 233.523438 341.601562 231.425781 341.601562 228.847656 C 341.601562 226.265625 343.703125 224.167969 346.289062 224.167969 C 348.875 224.167969 350.980469 226.265625 350.980469 228.847656 C 350.980469 231.425781 348.875 233.523438 346.289062 233.523438 Z M 346.289062 233.523438 "/><path style=" stroke:none;fill-rule:evenodd;fill:#7cbfa7;fill-opacity:1;" d="M 308.859375 261.046875 L 308.859375 257.109375 C 308.859375 254.566406 306.785156 252.496094 304.234375 252.496094 L 250.574219 252.496094 C 248.023438 252.496094 245.949219 254.566406 245.949219 257.109375 L 245.949219 261.046875 Z M 308.859375 261.046875 "/><path style=" stroke:none;fill-rule:evenodd;fill:#ededed;fill-opacity:1;" d="M 304.234375 254.148438 L 250.574219 254.148438 C 248.933594 254.148438 247.605469 255.472656 247.605469 257.109375 L 247.605469 271.914062 C 247.605469 273.546875 248.933594 274.871094 250.574219 274.871094 L 270.074219 274.871094 C 270.539062 274.871094 270.988281 275.042969 271.335938 275.351562 L 276.019531 279.480469 C 276.730469 280.109375 277.789062 280.117188 278.511719 279.503906 L 283.445312 275.324219 C 283.789062 275.03125 284.226562 274.871094 284.675781 274.871094 L 304.234375 274.871094 C 305.871094 274.871094 307.199219 273.546875 307.199219 271.914062 L 307.199219 257.109375 C 307.199219 255.472656 305.871094 254.148438 304.234375 254.148438 Z M 304.234375 254.148438 "/><path style=" stroke:none;fill-rule:evenodd;fill:#ededed;fill-opacity:1;" d="M 277.402344 296.183594 C 273.902344 296.183594 271.054688 293.34375 271.054688 289.851562 C 271.054688 286.355469 273.902344 283.515625 277.402344 283.515625 C 280.90625 283.515625 283.753906 286.355469 283.753906 289.851562 C 283.753906 293.34375 280.90625 296.183594 277.402344 296.183594 Z M 277.402344 296.183594 "/><path style=" stroke:none;fill-rule:evenodd;fill:#7cbfa7;fill-opacity:1;" d="M 277.402344 294.527344 C 274.816406 294.527344 272.714844 292.429688 272.714844 289.851562 C 272.714844 287.269531 274.816406 285.171875 277.402344 285.171875 C 279.988281 285.171875 282.09375 287.269531 282.09375 289.851562 C 282.09375 292.429688 279.988281 294.527344 277.402344 294.527344 Z M 277.402344 294.527344 "/><path style=" stroke:none;fill-rule:evenodd;fill:#efb237;fill-opacity:1;" d="M 454.296875 271.910156 L 454.296875 275.847656 C 454.296875 278.394531 456.371094 280.460938 458.925781 280.460938 L 512.582031 280.460938 C 515.136719 280.460938 517.210938 278.394531 517.210938 275.847656 L 517.210938 271.910156 Z M 454.296875 271.910156 "/><path style=" stroke:none;fill-rule:evenodd;fill:#ededed;fill-opacity:1;" d="M 458.925781 278.808594 L 512.582031 278.808594 C 514.222656 278.808594 515.550781 277.480469 515.550781 275.847656 L 515.550781 261.042969 C 515.550781 259.40625 514.222656 258.082031 512.582031 258.082031 L 493.082031 258.082031 C 492.617188 258.082031 492.167969 257.914062 491.820312 257.605469 L 487.136719 253.472656 C 486.425781 252.847656 485.367188 252.835938 484.644531 253.449219 L 479.710938 257.632812 C 479.367188 257.921875 478.933594 258.082031 478.480469 258.082031 L 458.925781 258.082031 C 457.285156 258.082031 455.957031 259.40625 455.957031 261.042969 L 455.957031 275.847656 C 455.957031 277.480469 457.285156 278.808594 458.925781 278.808594 Z M 458.925781 278.808594 "/><path style=" stroke:none;fill-rule:evenodd;fill:#ededed;fill-opacity:1;" d="M 485.753906 236.769531 C 489.253906 236.769531 492.101562 239.609375 492.101562 243.105469 C 492.101562 246.597656 489.253906 249.4375 485.753906 249.4375 C 482.25 249.4375 479.402344 246.597656 479.402344 243.105469 C 479.402344 239.609375 482.25 236.769531 485.753906 236.769531 Z M 485.753906 236.769531 "/><path style=" stroke:none;fill-rule:evenodd;fill:#efb237;fill-opacity:1;" d="M 485.753906 238.425781 C 488.339844 238.425781 490.445312 240.523438 490.445312 243.105469 C 490.445312 245.683594 488.339844 247.785156 485.753906 247.785156 C 483.167969 247.785156 481.0625 245.683594 481.0625 243.105469 C 481.0625 240.523438 483.167969 238.425781 485.753906 238.425781 Z M 485.753906 238.425781 "/><path style=" stroke:none;fill-rule:evenodd;fill:#545454;fill-opacity:1;" d="M 377.746094 322.238281 L 377.746094 326.175781 C 377.746094 328.722656 379.820312 330.789062 382.375 330.789062 L 436.03125 330.789062 C 438.585938 330.789062 440.660156 328.722656 440.660156 326.175781 L 440.660156 322.238281 Z M 377.746094 322.238281 "/><path style=" stroke:none;fill-rule:evenodd;fill:#ededed;fill-opacity:1;" d="M 382.375 329.136719 L 436.035156 329.136719 C 437.675781 329.136719 439.003906 327.808594 439.003906 326.175781 L 439.003906 311.371094 C 439.003906 309.734375 437.675781 308.410156 436.035156 308.410156 L 416.535156 308.410156 C 416.070312 308.410156 415.621094 308.242188 415.273438 307.933594 L 410.589844 303.800781 C 409.878906 303.175781 408.820312 303.164062 408.097656 303.777344 L 403.164062 307.960938 C 402.820312 308.25 402.386719 308.410156 401.933594 308.410156 L 382.375 308.410156 C 380.738281 308.410156 379.410156 309.734375 379.410156 311.371094 L 379.410156 326.175781 C 379.410156 327.808594 380.738281 329.136719 382.375 329.136719 Z M 382.375 329.136719 "/><path style=" stroke:none;fill-rule:evenodd;fill:#ededed;fill-opacity:1;" d="M 409.203125 287.097656 C 412.703125 287.097656 415.550781 289.9375 415.550781 293.433594 C 415.550781 296.925781 412.703125 299.765625 409.203125 299.765625 C 405.699219 299.765625 402.851562 296.925781 402.851562 293.433594 C 402.851562 289.9375 405.699219 287.097656 409.203125 287.097656 Z M 409.203125 287.097656 "/><path style=" stroke:none;fill-rule:evenodd;fill:#545454;fill-opacity:1;" d="M 409.203125 288.753906 C 411.789062 288.753906 413.894531 290.851562 413.894531 293.433594 C 413.894531 296.011719 411.789062 298.113281 409.203125 298.113281 C 406.617188 298.113281 404.511719 296.011719 404.511719 293.433594 C 404.511719 290.851562 406.617188 288.753906 409.203125 288.753906 Z M 409.203125 288.753906 "/><g clip-rule="nonzero" clip-path="url(#f378af9e38)"><path style=" stroke:none;fill-rule:evenodd;fill:#efb237;fill-opacity:1;" d="M 232.789062 375.691406 L 232.789062 379.628906 C 232.789062 382.175781 234.863281 384.246094 237.417969 384.246094 L 291.074219 384.246094 C 293.628906 384.246094 295.703125 382.175781 295.703125 379.628906 L 295.703125 375.691406 Z M 232.789062 375.691406 "/></g><path style=" stroke:none;fill-rule:evenodd;fill:#ededed;fill-opacity:1;" d="M 237.417969 382.589844 L 291.074219 382.589844 C 292.714844 382.589844 294.042969 381.265625 294.042969 379.628906 L 294.042969 364.824219 C 294.042969 363.1875 292.714844 361.863281 291.074219 361.863281 L 271.574219 361.863281 C 271.109375 361.863281 270.664062 361.695312 270.3125 361.386719 L 265.628906 357.253906 C 264.921875 356.628906 263.859375 356.617188 263.136719 357.230469 L 258.207031 361.414062 C 257.859375 361.703125 257.425781 361.863281 256.972656 361.863281 L 237.417969 361.863281 C 235.777344 361.863281 234.449219 363.1875 234.449219 364.824219 L 234.449219 379.628906 C 234.449219 381.265625 235.777344 382.589844 237.417969 382.589844 Z M 237.417969 382.589844 "/><path style=" stroke:none;fill-rule:evenodd;fill:#ededed;fill-opacity:1;" d="M 264.246094 340.550781 C 267.75 340.550781 270.597656 343.394531 270.597656 346.886719 C 270.597656 350.378906 267.75 353.222656 264.246094 353.222656 C 260.746094 353.222656 257.898438 350.378906 257.898438 346.886719 C 257.898438 343.394531 260.746094 340.550781 264.246094 340.550781 Z M 264.246094 340.550781 "/><path style=" stroke:none;fill-rule:evenodd;fill:#efb237;fill-opacity:1;" d="M 264.246094 342.207031 C 266.832031 342.207031 268.9375 344.308594 268.9375 346.886719 C 268.9375 349.464844 266.832031 351.566406 264.246094 351.566406 C 261.660156 351.566406 259.554688 349.464844 259.554688 346.886719 C 259.554688 344.308594 261.660156 342.207031 264.246094 342.207031 Z M 264.246094 342.207031 "/><g style="fill:#000000;fill-opacity:1;"><g transform="translate(325.637007, 159.645409)"><path style="stroke:none" d="M 1.472656 -11.085938 L 1.472656 0.8125 L 3.367188 0.8125 L 3.367188 -7.128906 C 4.664062 -8.953125 6.535156 -9.746094 7.699219 -9.746094 L 7.699219 -11.351562 C 6.160156 -11.351562 4.246094 -9.964844 3.367188 -8.667969 L 3.367188 -11.085938 Z M 1.472656 -11.085938 "/></g></g><g style="fill:#000000;fill-opacity:1;"><g transform="translate(333.511606, 159.645409)"><path style="stroke:none" d="M 0.96875 -5.125 C 0.96875 -1.695312 2.792969 1.1875 6.621094 1.1875 C 10.472656 1.1875 12.273438 -1.605469 12.273438 -5.125 C 12.273438 -8.511719 10.472656 -11.394531 6.621094 -11.394531 C 2.835938 -11.394531 0.96875 -8.402344 0.96875 -5.125 Z M 2.902344 -5.125 C 2.902344 -7.832031 4.3125 -9.722656 6.621094 -9.722656 C 8.996094 -9.722656 10.359375 -7.875 10.359375 -5.125 C 10.359375 -2.375 9.152344 -0.460938 6.621094 -0.460938 C 4.113281 -0.460938 2.902344 -2.417969 2.902344 -5.125 Z M 2.902344 -5.125 "/></g></g><g style="fill:#000000;fill-opacity:1;"><g transform="translate(346.753244, 159.645409)"><path style="stroke:none" d="M 1.035156 -1.824219 C 1.035156 0.242188 2.949219 1.101562 4.816406 1.101562 C 6.664062 1.101562 8.316406 0.351562 9.394531 -0.769531 C 9.394531 -0.703125 9.480469 0.0429688 9.523438 0.0898438 C 9.699219 0.683594 10.40625 0.945312 11.019531 0.945312 C 11.4375 0.945312 11.964844 0.878906 12.472656 0.792969 L 12.472656 -0.460938 C 11.527344 -0.375 11.242188 -0.484375 11.242188 -1.078125 L 11.242188 -7.589844 C 11.242188 -9.898438 9.679688 -11.394531 6.488281 -11.394531 C 3.914062 -11.394531 2.113281 -10.097656 1.40625 -8.050781 L 3.191406 -7.789062 C 3.761719 -9.347656 5.148438 -9.8125 6.402344 -9.8125 C 8.558594 -9.8125 9.328125 -8.734375 9.328125 -7.566406 L 9.328125 -6.886719 C 4.289062 -6.246094 1.035156 -4.925781 1.035156 -1.824219 Z M 2.96875 -2.023438 C 2.96875 -4.070312 5.917969 -4.816406 9.328125 -5.28125 C 9.328125 -4.640625 9.304688 -2.835938 9.304688 -2.199219 C 8.183594 -1.164062 6.886719 -0.460938 5.214844 -0.460938 C 3.804688 -0.460938 2.96875 -0.96875 2.96875 -2.023438 Z M 2.96875 -2.023438 "/></g></g><g style="fill:#000000;fill-opacity:1;"><g transform="translate(359.708939, 159.645409)"><path style="stroke:none" d="M 1.035156 -5.125 C 1.035156 -1.519531 2.726562 1.1875 6.246094 1.1875 C 7.371094 1.1875 8.820312 0.792969 10.140625 -0.441406 L 10.140625 0.792969 L 12.054688 0.792969 L 12.054688 -15.421875 L 10.140625 -15.421875 L 10.140625 -9.613281 C 8.886719 -10.933594 7.566406 -11.394531 6.179688 -11.394531 C 2.726562 -11.394531 1.035156 -8.734375 1.035156 -5.125 Z M 6.511719 -0.460938 C 4.027344 -0.460938 2.949219 -2.75 2.949219 -5.125 C 2.949219 -7.589844 4.046875 -9.722656 6.511719 -9.722656 C 7.917969 -9.722656 9.195312 -8.996094 10.140625 -7.941406 L 10.140625 -2.046875 C 9.195312 -1.101562 7.832031 -0.460938 6.511719 -0.460938 Z M 6.511719 -0.460938 "/></g></g><g style="fill:#000000;fill-opacity:1;"><g transform="translate(373.192539, 159.645409)"><path style="stroke:none" d="M 1.472656 -11.085938 L 1.472656 0.792969 L 3.367188 0.792969 L 3.367188 -7.941406 C 4.265625 -8.996094 5.476562 -9.8125 6.6875 -9.8125 C 8.050781 -9.8125 9.195312 -8.800781 9.195312 -6.90625 L 9.195312 0.792969 L 11.128906 0.792969 L 11.128906 -7.917969 C 11.988281 -8.886719 13.199219 -9.8125 14.320312 -9.8125 C 15.902344 -9.8125 16.917969 -8.734375 16.917969 -6.996094 L 16.917969 0.792969 L 18.828125 0.792969 L 18.828125 -7.238281 C 18.828125 -9.964844 17.378906 -11.394531 14.914062 -11.394531 C 13.507812 -11.394531 11.964844 -10.535156 10.824219 -9.21875 L 10.800781 -9.21875 C 9.988281 -10.890625 8.820312 -11.394531 7.238281 -11.394531 C 5.761719 -11.394531 4.398438 -10.601562 3.367188 -9.480469 L 3.367188 -11.085938 Z M 1.472656 -11.085938 "/></g></g><g style="fill:#000000;fill-opacity:1;"><g transform="translate(393.494918, 159.645409)"><path style="stroke:none" d="M 1.035156 -1.824219 C 1.035156 0.242188 2.949219 1.101562 4.816406 1.101562 C 6.664062 1.101562 8.316406 0.351562 9.394531 -0.769531 C 9.394531 -0.703125 9.480469 0.0429688 9.523438 0.0898438 C 9.699219 0.683594 10.40625 0.945312 11.019531 0.945312 C 11.4375 0.945312 11.964844 0.878906 12.472656 0.792969 L 12.472656 -0.460938 C 11.527344 -0.375 11.242188 -0.484375 11.242188 -1.078125 L 11.242188 -7.589844 C 11.242188 -9.898438 9.679688 -11.394531 6.488281 -11.394531 C 3.914062 -11.394531 2.113281 -10.097656 1.40625 -8.050781 L 3.191406 -7.789062 C 3.761719 -9.347656 5.148438 -9.8125 6.402344 -9.8125 C 8.558594 -9.8125 9.328125 -8.734375 9.328125 -7.566406 L 9.328125 -6.886719 C 4.289062 -6.246094 1.035156 -4.925781 1.035156 -1.824219 Z M 2.96875 -2.023438 C 2.96875 -4.070312 5.917969 -4.816406 9.328125 -5.28125 C 9.328125 -4.640625 9.304688 -2.835938 9.304688 -2.199219 C 8.183594 -1.164062 6.886719 -0.460938 5.214844 -0.460938 C 3.804688 -0.460938 2.96875 -0.96875 2.96875 -2.023438 Z M 2.96875 -2.023438 "/></g></g><g style="fill:#000000;fill-opacity:1;"><g transform="translate(406.450613, 159.645409)"><path style="stroke:none" d="M 1.472656 -11.085938 L 1.472656 5.058594 L 3.410156 5.058594 L 3.410156 -0.394531 C 4.53125 0.550781 5.984375 1.1875 7.324219 1.1875 C 10.933594 1.1875 12.5625 -1.386719 12.5625 -5.015625 C 12.5625 -8.710938 10.976562 -11.417969 7.414062 -11.417969 C 6.09375 -11.417969 4.730469 -10.867188 3.410156 -9.523438 L 3.410156 -11.085938 Z M 7.082031 -9.746094 C 9.636719 -9.746094 10.625 -7.546875 10.625 -5.015625 C 10.625 -2.660156 9.613281 -0.460938 7.082031 -0.460938 C 5.675781 -0.460938 4.355469 -1.121094 3.410156 -2.066406 L 3.410156 -7.808594 C 4.398438 -8.929688 5.742188 -9.746094 7.082031 -9.746094 Z M 7.082031 -9.746094 "/></g></g></g></svg>